<?xml version="1.0" standalone="no"?>
<!DOCTYPE svg PUBLIC "-//W3C//DTD SVG 20010904//EN"
 "http://www.w3.org/TR/2001/REC-SVG-20010904/DTD/svg10.dtd">
<svg version="1.0" xmlns="http://www.w3.org/2000/svg"
 width="421.000000pt" height="421.000000pt" viewBox="0 0 421.000000 421.000000"
 preserveAspectRatio="xMidYMid meet">

<g transform="translate(0.000000,421.000000) scale(0.100000,-0.100000)"
fill="#000000" stroke="none">
<path d="M1 3213 c1 -549 4 -984 6 -968 2 17 10 84 19 150 55 438 259 856 578
1184 186 190 352 313 570 420 186 91 434 169 591 186 33 3 74 9 90 12 28 5 29
4 15 -13 -37 -45 -49 -78 -36 -96 9 -13 16 -14 24 -6 14 14 40 -5 53 -39 14
-37 36 -28 44 17 6 38 9 40 43 42 85 4 99 3 131 -9 18 -7 35 -13 37 -13 2 0 4
16 4 35 0 19 3 35 6 35 13 0 33 -36 34 -60 1 -41 11 -70 26 -70 10 0 14 -13
14 -40 0 -22 -4 -40 -10 -40 -5 0 -10 -20 -10 -44 0 -25 -4 -48 -10 -51 -5 -3
-10 -15 -10 -26 0 -22 35 -27 44 -6 5 10 7 10 12 0 3 -7 15 -13 27 -12 20 0
20 1 5 11 -14 11 -13 15 18 46 40 40 54 35 35 -11 -25 -61 -30 -97 -15 -97 22
0 74 61 74 87 0 16 -4 22 -12 18 -7 -4 -5 0 5 8 15 12 16 19 8 36 -14 25 -14
31 -1 31 6 0 10 -6 10 -14 0 -7 6 -19 13 -25 10 -7 13 -38 13 -103 l-1 -93
-50 -3 c-57 -4 -74 -14 -56 -36 10 -12 9 -23 -5 -55 -26 -59 -45 -58 -111 5
-31 30 -65 56 -74 59 -9 3 -20 16 -23 29 -8 32 -79 88 -100 80 -12 -5 -15 -2
-10 10 4 12 2 15 -9 10 -28 -10 -29 -36 -1 -65 l27 -28 -29 -6 c-16 -3 -37 -8
-47 -10 -10 -2 -34 3 -54 11 -62 26 -223 -14 -289 -71 -21 -19 -42 -35 -46
-35 -11 0 -152 -191 -154 -209 -1 -9 -6 -27 -10 -40 -6 -21 -4 -23 11 -18 16
7 17 6 1 -17 -17 -27 -22 -61 -7 -52 5 3 12 -13 15 -37 19 -127 25 -148 44
-145 14 3 17 -5 16 -46 -1 -31 1 -44 7 -35 8 13 13 5 10 -14 -3 -15 20 -47 29
-42 6 3 7 -1 4 -9 -3 -9 -1 -16 5 -16 6 0 11 5 11 12 0 6 3 8 7 4 5 -4 -1 -14
-11 -22 -17 -12 -18 -14 -3 -14 9 0 17 -6 17 -14 0 -7 10 -16 21 -19 15 -4 20
-11 16 -21 -4 -9 -2 -16 4 -16 5 0 12 7 15 15 4 8 10 12 16 9 5 -3 1 -13 -9
-21 -12 -9 -14 -16 -7 -19 7 -3 10 -15 8 -27 -2 -12 -1 -16 2 -9 5 10 9 10 20
1 12 -10 13 -8 8 7 -4 10 -11 25 -17 32 -5 6 -6 12 -1 12 5 0 19 -19 31 -41
16 -30 18 -39 8 -35 -13 5 -13 0 0 -32 9 -20 20 -38 25 -40 6 -2 10 -10 10
-18 0 -8 6 -17 14 -20 8 -3 22 -26 31 -52 10 -26 22 -51 26 -56 5 -6 9 -21 9
-33 0 -13 12 -35 26 -48 l26 -24 -63 -31 c-35 -17 -72 -29 -81 -27 -16 5 -117
-38 -128 -53 -3 -4 -30 -15 -60 -25 -77 -25 -165 -70 -232 -119 -72 -52 -80
-66 -63 -99 7 -14 9 -29 5 -34 -10 -10 -83 -246 -101 -323 -7 -30 -15 -91 -19
-135 -11 -122 -39 -332 -55 -410 -9 -38 -20 -103 -25 -143 -13 -94 -25 -148
-45 -194 -20 -50 -19 -86 5 -131 l21 -38 -29 -48 c-38 -61 -43 -80 -33 -116 7
-26 -4 -71 -26 -104 -1 -2 -45 28 -97 67 -178 134 -367 343 -490 542 -185 299
-277 580 -319 980 -2 19 -5 -418 -5 -972 l-2 -1008 2105 0 2105 0 -1 1003 -1
1002 -19 -143 c-55 -419 -220 -799 -475 -1097 l-69 -80 -6 90 c-4 50 -19 153
-34 230 -14 77 -30 181 -35 230 -20 197 -61 473 -86 569 -15 55 -30 120 -35
144 -5 23 -13 50 -18 60 -5 9 -7 28 -4 42 3 16 -2 33 -14 46 -44 49 -401 274
-434 274 -26 0 -249 117 -274 143 -11 12 -20 31 -20 42 0 13 -6 20 -17 19 -10
-1 -18 5 -18 12 0 20 -99 115 -132 126 -16 6 -26 14 -23 18 3 5 1 11 -4 14 -5
3 -14 35 -21 70 -10 56 -10 68 4 87 9 13 13 34 11 48 -5 22 -4 23 4 6 10 -21
10 -21 16 7 4 23 -22 31 -34 10 -6 -9 -11 -12 -11 -6 0 6 12 24 26 39 16 18
22 31 16 37 -7 7 -12 3 -17 -11 -6 -21 -25 -29 -25 -11 0 6 4 10 9 10 11 0 25
65 22 105 -2 35 34 85 62 85 9 0 16 5 15 12 -2 6 12 13 32 14 35 3 51 5 127
18 39 7 44 6 52 -17 13 -33 36 -40 63 -17 l23 19 -58 25 c-32 14 -65 26 -75
26 -9 0 -32 9 -50 20 -18 11 -39 20 -47 20 -8 0 -15 9 -15 19 0 12 -9 21 -26
25 -22 6 -25 10 -19 36 6 25 3 30 -13 30 -10 0 -27 9 -37 20 -16 18 -16 22 -3
38 16 19 38 67 38 83 0 6 -15 10 -32 9 -55 -3 -66 -1 -72 16 -4 9 -2 22 4 29
5 7 11 24 12 39 1 15 11 35 21 44 10 9 25 25 35 35 9 9 22 17 28 17 12 0 24
67 24 137 0 40 -3 45 -31 55 l-31 11 26 22 c14 12 26 29 26 36 0 11 2 11 9 1
11 -17 103 -25 113 -9 4 7 8 26 8 42 1 25 2 27 11 13 8 -14 15 -15 36 -7 28
10 88 5 113 -11 11 -7 12 -11 0 -25 -11 -13 -10 -18 5 -29 16 -11 22 -11 39 5
11 11 22 19 25 19 14 -1 51 -40 51 -53 0 -25 39 -32 55 -10 13 16 14 16 15 2
0 -18 20 -29 51 -29 61 0 354 -216 510 -376 333 -343 524 -749 583 -1244 12
-103 14 -14 15 883 l1 997 -2105 0 -2105 0 1 -997z m2530 901 c10 -9 23 -13
29 -9 9 6 9 2 1 -14 -7 -11 -18 -21 -25 -21 -8 0 -19 -7 -26 -15 -16 -19 -31
-20 -24 -1 8 20 -12 28 -26 11 -10 -12 -16 -11 -41 7 l-28 21 32 24 c35 27 77
25 108 -3z m-146 -104 c4 -6 10 -8 14 -6 4 3 13 0 21 -5 13 -8 13 -10 1 -18
-8 -5 -11 -16 -8 -24 7 -18 -16 -29 -46 -22 -18 5 -22 14 -22 45 -1 32 3 40
16 40 10 0 21 -5 24 -10z m125 6 c0 -3 -4 -8 -10 -11 -5 -3 -10 -1 -10 4 0 6
5 11 10 11 6 0 10 -2 10 -4z m-70 -446 c0 -5 -5 -10 -11 -10 -5 0 -7 5 -4 10
3 6 8 10 11 10 2 0 4 -4 4 -10z m-5 -80 c-3 -5 -12 -10 -18 -10 -7 0 -6 4 3
10 19 12 23 12 15 0z m-387 -81 c17 -13 34 -34 38 -47 6 -22 49 -52 76 -52 7
-1 32 -27 56 -58 23 -32 54 -70 67 -86 21 -24 37 -71 39 -111 1 -5 14 -36 29
-68 38 -78 50 -156 36 -232 -6 -33 -14 -64 -18 -70 -4 -5 -18 -37 -31 -69 -28
-70 -69 -120 -119 -145 -79 -40 -118 -35 -170 19 -16 17 -42 33 -57 34 -15 2
-46 18 -68 37 -22 19 -51 41 -64 50 -82 56 -165 166 -133 177 6 2 11 10 11 17
0 7 7 15 15 19 8 3 15 10 15 16 0 6 -6 8 -12 4 -7 -4 -2 5 11 19 13 15 33 29
43 33 10 3 16 10 12 15 -3 5 -9 7 -14 4 -4 -3 -10 0 -12 7 -3 9 -16 10 -54 1
-27 -6 -53 -8 -57 -3 -12 11 4 19 63 30 39 7 55 7 64 -3 31 -31 46 -65 46
-101 0 -55 19 -110 43 -125 17 -11 19 -11 14 3 -5 13 -2 15 19 10 l26 -7 -26
26 c-14 14 -26 33 -26 41 0 34 -54 175 -68 177 -4 0 -20 3 -37 7 -16 3 -50 6
-75 7 -48 0 -63 10 -54 36 2 10 -4 43 -15 75 -21 62 -22 95 -2 132 6 12 10 26
7 31 -10 16 86 102 156 140 61 33 78 37 133 36 49 -1 69 -6 93 -26z m322 -110
c-11 -8 -12 -12 -2 -16 6 -2 12 -8 12 -13 0 -4 12 -21 28 -37 15 -17 36 -47
47 -67 20 -37 20 -37 0 -53 -14 -11 -16 -17 -7 -20 6 -3 12 -15 12 -28 0 -24
-25 -45 -53 -45 -20 0 -29 41 -14 60 17 19 37 67 37 85 0 25 -38 55 -70 55
-22 0 -30 5 -30 18 0 29 24 72 40 72 13 0 13 -1 0 -11z m21 -99 c20 -11 27
-60 9 -60 -6 0 -15 -10 -20 -22 l-9 -23 -2 25 c-1 14 -3 32 -4 41 0 9 -7 24
-14 33 -11 14 -11 16 3 16 10 0 26 -5 37 -10z m-866 -199 l20 -24 -22 14 c-13
8 -23 20 -23 28 0 8 1 12 3 10 1 -2 11 -15 22 -28z m925 -1 c0 -5 -2 -10 -4
-10 -3 0 -8 5 -11 10 -3 6 -1 10 4 10 6 0 11 -4 11 -10z m-900 -40 c0 -5 -2
-10 -4 -10 -3 0 -8 5 -11 10 -3 6 -1 10 4 10 6 0 11 -4 11 -10z m920 -40 c0
-11 -4 -20 -9 -20 -5 0 -7 9 -4 20 3 11 7 20 9 20 2 0 4 -9 4 -20z m-877 -31
c4 -16 3 -18 -9 -8 -16 13 -19 29 -5 29 5 0 11 -9 14 -21z m152 -9 c3 -5 1
-10 -4 -10 -6 0 -11 5 -11 10 0 6 2 10 4 10 3 0 8 -4 11 -10z m708 -183 c-2
-4 0 -13 5 -20 12 -15 34 -155 27 -168 -4 -5 0 -9 7 -10 10 0 10 -2 1 -6 -7
-2 -13 -15 -13 -28 0 -13 -4 -26 -10 -30 -5 -3 -7 -12 -4 -19 5 -14 -101 -136
-118 -136 -6 0 -32 -15 -57 -34 -26 -18 -65 -39 -87 -46 l-39 -13 28 -10 c17
-5 26 -14 23 -22 -2 -7 1 -18 7 -24 8 -8 8 -11 -1 -11 -17 0 -83 92 -77 108 3
8 0 10 -7 6 -7 -5 -9 -2 -5 8 3 9 0 21 -6 27 -16 16 -19 51 -3 51 7 0 27 -5
45 -11 18 -6 34 -9 37 -6 2 2 -2 25 -11 50 -18 54 -14 67 29 90 76 42 129 111
171 229 20 54 36 70 51 49 7 -9 10 -19 7 -24z m933 -625 c-4 -3 -14 2 -24 12
-16 18 -16 18 6 6 13 -6 21 -14 18 -18z m-596 -605 c0 -6 -9 -1 -20 11 -11 12
-20 27 -20 33 0 7 9 2 20 -11 11 -13 20 -28 20 -33z m125 -97 c-3 -5 -13 -10
-21 -10 -8 0 -12 5 -9 10 3 6 13 10 21 10 8 0 12 -4 9 -10z m37 -32 c-6 -6
-16 -7 -22 -3 -9 6 -9 9 1 16 17 10 34 0 21 -13z m-72 -18 c0 -5 6 -7 14 -4
16 6 33 -35 18 -45 -5 -3 -8 -13 -6 -21 2 -8 8 -34 13 -58 4 -24 16 -49 26
-56 12 -8 14 -15 7 -20 -6 -3 -13 -2 -17 4 -10 16 -25 1 -25 -25 0 -13 -6 -26
-12 -28 -8 -3 -6 -6 5 -6 11 -1 17 -9 17 -26 0 -14 6 -25 13 -26 10 0 10 -2 0
-6 -7 -2 -13 -16 -13 -30 0 -22 -2 -23 -15 -9 -9 8 -23 12 -32 9 -12 -5 -14
-3 -8 8 12 18 7 69 -7 86 -7 9 -7 13 1 13 6 0 11 5 11 10 0 6 -7 10 -15 10 -8
0 -16 10 -16 23 -2 21 -4 42 -8 61 0 5 -8 3 -16 -4 -10 -9 -15 -9 -15 -1 0 6
-8 11 -17 11 -16 1 -16 2 2 16 19 14 19 15 -3 20 -17 5 -22 14 -22 41 0 25 -3
32 -12 27 -9 -6 -9 -3 1 9 9 12 18 14 30 7 18 -9 61 -3 61 9 0 4 9 7 20 8 11
1 20 -2 20 -7z m-169 -17 c2 -20 8 -46 15 -61 13 -31 11 -53 -3 -48 -22 9 -15
-2 27 -43 46 -44 48 -53 20 -83 -17 -19 -20 -19 -20 -5 0 9 -4 17 -8 17 -5 0
-9 -7 -9 -15 0 -8 4 -15 9 -15 4 0 8 -6 8 -14 0 -18 -27 -29 -33 -13 -2 7 -11
3 -22 -10 -10 -12 -23 -19 -29 -17 -8 3 -11 -9 -11 -33 1 -21 -3 -43 -7 -50
-6 -8 -4 -11 7 -9 9 1 20 8 24 14 5 9 18 4 46 -18 21 -16 33 -30 26 -30 -6 0
-11 -5 -11 -11 0 -8 4 -8 15 1 11 9 18 9 35 -3 11 -7 17 -17 12 -22 -4 -5 -2
-5 5 -1 12 7 61 -18 75 -39 4 -5 1 -19 -6 -30 -10 -15 -11 -27 -4 -38 5 -10 6
-27 2 -40 -4 -12 -7 -34 -6 -48 1 -16 -4 -29 -13 -33 -9 -3 -15 0 -15 9 0 8
-7 15 -15 15 -9 0 -12 6 -8 17 4 10 2 14 -4 10 -5 -3 -15 4 -22 16 -6 12 -26
30 -42 40 -22 12 -29 22 -25 34 4 9 2 19 -3 22 -6 4 -11 27 -13 51 -3 48 -30
65 -36 23 -2 -13 -7 -23 -11 -23 -13 0 -9 34 7 53 9 10 10 17 4 17 -6 0 -14
-4 -17 -10 -13 -21 -34 -9 -41 23 -4 17 -9 26 -11 20 -4 -10 -8 -9 -19 2 -9 8
-12 21 -8 27 6 10 4 11 -7 1 -20 -19 -32 -16 -26 7 3 11 1 20 -4 20 -5 0 -7
12 -4 28 3 15 2 21 -1 13 -5 -10 -8 -10 -14 -1 -5 8 -9 7 -13 -5 -4 -9 -3 -14
2 -11 5 3 11 -7 13 -24 2 -16 1 -27 -4 -24 -4 3 -11 -8 -14 -25 -4 -16 -12
-32 -20 -35 -8 -3 -14 -12 -14 -21 0 -8 -3 -15 -8 -15 -4 0 -7 -27 -7 -60 1
-33 -2 -60 -7 -60 -4 0 -5 -6 -3 -13 3 -6 -4 -18 -15 -25 -18 -11 -20 -10 -20
18 0 17 5 30 12 30 9 0 9 3 0 12 -15 15 -15 78 0 115 6 15 12 41 13 56 2 15
10 36 20 47 9 10 15 22 12 27 -2 4 0 19 6 33 5 14 9 32 8 41 -2 15 26 47 33
38 1 -2 10 -15 19 -29 l17 -24 0 24 c1 24 1 24 15 6 8 -10 12 -23 9 -27 -3 -5
0 -9 5 -9 6 0 11 -9 11 -20 0 -11 7 -20 15 -20 8 0 12 6 10 13 -3 6 -6 30 -9
52 -2 25 -9 39 -16 37 -21 -5 -50 9 -50 24 0 8 5 14 10 14 6 0 10 7 10 16 0
14 2 14 15 0 8 -8 15 -19 15 -25 0 -13 10 -14 29 -2 11 7 10 13 -8 32 -11 12
-21 19 -21 14 0 -5 -7 0 -15 11 -8 10 -14 24 -15 29 0 6 3 6 8 0 4 -6 19 -18
33 -27 26 -16 27 -16 32 2 4 15 13 20 39 19 31 0 31 -1 10 -10 -13 -5 -28 -7
-33 -3 -5 3 -9 -7 -9 -23 1 -25 2 -26 14 -10 16 21 30 23 23 2 -4 -8 -2 -17 3
-20 6 -4 10 5 10 19 0 13 6 26 12 28 9 3 8 12 -5 32 -13 20 -15 31 -8 40 6 7
8 16 4 19 -3 4 -1 7 5 7 7 0 12 -3 13 -7z m-36 -53 c3 -5 1 -10 -4 -10 -6 0
-11 5 -11 10 0 6 2 10 4 10 3 0 8 -4 11 -10z m121 -189 c-4 -5 -2 -21 4 -36 7
-19 7 -31 0 -40 -5 -6 -6 -15 -2 -19 4 -4 0 -6 -8 -4 -27 6 -54 51 -27 46 7
-2 11 6 9 21 -2 13 2 28 10 32 17 11 20 11 14 0z m-19 -123 c32 -28 62 -59 67
-67 5 -9 5 -13 1 -9 -5 4 -14 3 -21 -3 -10 -8 -24 -1 -56 29 -24 21 -51 41
-60 45 -14 5 -15 10 -5 31 7 14 13 26 14 26 2 0 29 -23 60 -52z m105 -13 c17
-20 18 -20 18 0 l1 20 8 -20 c14 -34 -15 -40 -50 -11 -17 14 -35 26 -41 26 -6
0 -6 6 2 15 14 17 29 9 62 -30z m-182 -75 c0 -5 -4 -10 -10 -10 -5 0 -10 5
-10 10 0 6 5 10 10 10 6 0 10 -4 10 -10z m175 0 c3 -5 1 -10 -4 -10 -6 0 -11
5 -11 10 0 6 2 10 4 10 3 0 8 -4 11 -10z m-175 -30 c0 -5 -5 -10 -11 -10 -5 0
-7 5 -4 10 3 6 8 10 11 10 2 0 4 -4 4 -10z m-20 -40 c0 -5 -2 -10 -4 -10 -3 0
-8 5 -11 10 -3 6 -1 10 4 10 6 0 11 -4 11 -10z m-229 -125 c-2 -11 -3 -46 -3
-77 1 -32 -3 -58 -8 -58 -5 0 -15 -7 -24 -15 -9 -9 -17 -11 -21 -5 -3 5 -1 10
5 10 6 0 8 5 5 10 -10 16 -12 111 -3 116 5 3 6 15 2 26 -5 17 -2 19 23 16 22
-2 27 -7 24 -23z m-84 -62 c-3 -10 -5 -2 -5 17 0 19 2 27 5 18 2 -10 2 -26 0
-35z m70 -153 c-1 -11 -6 -20 -12 -20 -5 0 1 -9 15 -20 25 -19 25 -20 3 -20
-26 0 -36 13 -38 52 -1 21 3 28 16 28 12 0 17 -7 16 -20z m0 -119 c10 -16 9
-20 -3 -25 -22 -8 -22 -9 -20 19 1 30 7 31 23 6z m16 -89 c3 -15 0 -30 -6 -34
-7 -5 -3 -8 10 -8 35 0 42 -45 12 -69 -24 -19 -53 -18 -46 3 2 6 14 10 26 8
30 -5 25 29 -6 42 -17 8 -21 18 -20 52 0 48 21 52 30 6z m47 -13 c0 -5 -4 -9
-10 -9 -5 0 -10 7 -10 16 0 8 5 12 10 9 6 -3 10 -10 10 -16z m39 -58 c7 -5 11
-13 7 -19 -3 -6 0 -12 6 -15 9 -3 10 -8 2 -16 -13 -14 -39 5 -49 37 -7 23 8
29 34 13z"/>
<path d="M2033 3188 c-37 -18 -27 -30 20 -23 60 9 77 15 77 26 0 12 -70 10
-97 -3z"/>
<path d="M1994 3145 c-4 -8 -12 -15 -20 -15 -16 0 -69 -68 -60 -77 3 -4 25 11
48 33 23 21 48 44 55 51 10 9 10 12 -3 17 -8 3 -17 -1 -20 -9z"/>
<path d="M2034 3086 c-54 -36 -67 -56 -58 -81 16 -41 103 10 104 61 0 17 5 20
25 16 28 -5 32 3 11 24 -20 20 -25 18 -82 -20z m16 -57 c0 -5 -11 -9 -25 -9
-24 0 -32 10 -19 22 8 8 44 -3 44 -13z"/>
<path d="M2090 3059 c0 -5 5 -7 10 -4 6 3 10 8 10 11 0 2 -4 4 -10 4 -5 0 -10
-5 -10 -11z"/>
<path d="M2131 2689 c-78 -39 -112 -52 -158 -57 -23 -3 -14 -33 19 -63 37 -33
41 -34 58 -14 7 8 22 15 34 15 16 0 18 2 7 9 -12 8 -10 16 13 46 15 20 38 40
49 45 23 9 76 61 61 59 -5 -1 -42 -19 -83 -40z"/>
<path d="M2632 1144 c-7 -8 -8 -14 -3 -14 10 0 25 19 20 25 -2 1 -10 -3 -17
-11z"/>
<path d="M2700 1060 c-8 -5 -12 -12 -9 -15 4 -3 12 1 19 10 14 17 11 19 -10 5z"/>
<path d="M2751 837 c-9 -12 -7 -14 9 -13 11 0 21 5 21 11 1 16 -17 17 -30 2z"/>
<path d="M2770 795 c7 -8 17 -15 22 -15 6 0 5 7 -2 15 -7 8 -17 15 -22 15 -6
0 -5 -7 2 -15z"/>
<path d="M1795 4170 c3 -5 12 -7 20 -3 21 7 19 13 -6 13 -11 0 -18 -4 -14 -10z"/>
<path d="M1835 3977 c-4 -10 -5 -21 -1 -24 10 -10 18 4 13 24 -4 17 -4 17 -12
0z"/>
<path d="M1959 3928 c0 -2 -2 -25 -4 -51 -2 -33 1 -45 8 -38 13 13 19 91 7 91
-6 0 -10 -1 -11 -2z"/>
<path d="M1910 3895 c21 -22 26 -24 28 -10 4 20 4 20 -28 30 l-25 7 25 -27z"/>
<path d="M2116 3874 c-13 -12 -14 -20 -4 -37 6 -12 11 -23 10 -24 -1 -2 -2 -6
-2 -10 0 -5 7 5 15 21 25 48 13 82 -19 50z"/>
<path d="M1932 3800 c0 -14 2 -19 5 -12 2 6 2 18 0 25 -3 6 -5 1 -5 -13z"/>
<path d="M3160 3810 c0 -5 7 -10 15 -10 8 0 15 5 15 10 0 6 -7 10 -15 10 -8 0
-15 -4 -15 -10z"/>
<path d="M2685 3730 c-3 -6 0 -12 7 -14 7 -3 20 -6 28 -9 8 -2 -6 -8 -32 -12
-51 -8 -100 -45 -60 -45 11 0 24 -5 28 -11 8 -14 129 -2 165 17 43 22 44 42 2
53 -20 6 -47 8 -60 5 -16 -4 -25 -1 -29 10 -7 18 -39 22 -49 6z"/>
<path d="M2150 3693 c0 -5 17 -9 38 -10 28 -1 32 1 17 7 -26 11 -55 12 -55 3z"/>
<path d="M2241 3684 c6 -8 25 -14 42 -14 38 0 30 9 -18 20 -30 7 -34 6 -24 -6z"/>
<path d="M1473 3653 c-18 -7 -16 -28 2 -43 18 -15 21 -13 30 23 7 27 -2 33
-32 20z"/>
<path d="M1425 3620 c-3 -6 1 -7 9 -4 18 7 21 14 7 14 -6 0 -13 -4 -16 -10z"/>
<path d="M2970 3190 c0 -5 5 -10 10 -10 6 0 10 5 10 10 0 6 -4 10 -10 10 -5 0
-10 -4 -10 -10z"/>
<path d="M1460 3060 c-13 -8 -12 -10 3 -10 9 0 17 5 17 10 0 12 -1 12 -20 0z"/>
<path d="M1550 2840 c0 -5 7 -10 16 -10 8 0 12 5 9 10 -3 6 -10 10 -16 10 -5
0 -9 -4 -9 -10z"/>
<path d="M2482 2820 c0 -14 2 -19 5 -12 2 6 2 18 0 25 -3 6 -5 1 -5 -13z"/>
</g>
</svg>
