<?xml version="1.0" standalone="no"?>
<!DOCTYPE svg PUBLIC "-//W3C//DTD SVG 20010904//EN"
 "http://www.w3.org/TR/2001/REC-SVG-20010904/DTD/svg10.dtd">
<svg version="1.0" xmlns="http://www.w3.org/2000/svg"
 width="768.000000pt" height="768.000000pt" viewBox="0 0 768.000000 768.000000"
 preserveAspectRatio="xMidYMid meet">

<g transform="translate(0.000000,768.000000) scale(0.100000,-0.100000)"
fill="#000000" stroke="none">
<path d="M0 3840 l0 -3840 225 0 225 0 -20 32 c-11 18 -20 43 -20 56 0 13 -16
69 -36 125 -84 238 -123 347 -153 427 -27 75 -63 205 -105 380 -40 166 -40
467 -1 615 17 63 81 202 122 261 13 20 47 80 75 135 38 73 58 101 75 105 49
13 137 135 155 217 8 40 22 64 58 102 51 55 75 104 89 178 5 27 23 68 40 93
20 27 35 64 41 96 24 141 71 227 137 248 21 7 59 23 85 36 30 15 65 24 95 24
26 0 67 9 91 20 25 11 69 20 109 22 43 1 73 8 87 19 31 24 237 22 262 -2 15
-15 13 -18 -15 -30 -36 -16 -39 -25 -11 -32 11 -3 20 -11 20 -17 0 -12 -6 -11
-87 4 -13 3 -25 1 -28 -5 -10 -16 -32 -10 -38 11 -4 15 -14 20 -39 20 -19 0
-38 -4 -44 -9 -5 -5 -26 -14 -46 -20 -38 -13 -53 -36 -42 -64 9 -26 39 -29 93
-11 28 9 58 14 66 10 9 -3 43 3 75 14 37 13 86 20 132 20 55 0 79 5 97 19 27
21 27 29 -8 181 -101 433 -112 520 -113 825 0 263 8 377 42 585 10 63 21 140
25 170 11 99 99 354 128 372 7 4 8 8 2 8 -5 0 17 28 50 62 33 35 45 49 26 33
l-34 -30 19 33 c10 18 35 55 55 81 20 27 40 58 44 70 3 12 10 19 15 16 5 -3 6
-13 3 -23 -3 -9 -3 -14 1 -11 4 4 9 17 11 29 3 13 10 27 16 30 6 4 10 10 10
14 -1 3 13 21 30 39 29 29 32 30 26 8 -6 -22 -5 -23 12 -5 10 11 16 24 14 30
-2 6 3 19 12 28 9 9 13 16 8 17 -4 0 1 4 12 9 25 11 71 13 61 3 -4 -5 -11 -8
-16 -8 -4 0 -27 -24 -50 -52 -23 -29 -46 -53 -51 -53 -5 0 -14 -12 -19 -26 -6
-14 -14 -23 -18 -20 -4 2 -14 0 -22 -6 -12 -8 -12 -9 3 -4 27 9 21 -2 -35 -61
-29 -30 -54 -60 -56 -66 -4 -14 83 78 160 170 35 41 55 58 60 50 5 -8 8 -4 8
10 0 13 18 37 45 61 l46 40 -36 -8 c-30 -7 -35 -6 -31 7 3 8 6 18 6 22 0 4 14
15 32 25 17 11 44 34 60 52 16 19 33 32 38 31 4 -1 26 15 49 37 47 42 63 44
30 3 -11 -15 -17 -27 -12 -27 4 0 14 10 22 22 14 22 14 22 23 3 7 -17 8 -16 4
4 -3 17 2 32 17 47 12 12 37 38 56 58 19 19 39 32 45 29 6 -3 8 -2 3 2 -11 13
24 45 50 45 12 0 23 4 23 10 0 5 15 17 33 26 17 9 35 22 39 28 16 25 15 -2 -2
-37 -10 -20 -14 -35 -9 -32 4 3 15 20 24 38 25 50 39 66 79 82 39 17 41 11 8
-27 -9 -11 -11 -18 -4 -18 6 0 14 4 17 10 9 14 93 71 113 75 115 28 112 28
139 3 l26 -23 -12 23 c-6 12 -8 22 -4 23 4 0 20 2 36 4 19 3 25 0 21 -8 -3 -7
1 -4 9 6 8 9 23 17 33 18 10 0 28 5 39 10 15 7 12 8 -15 4 -25 -4 -31 -2 -20
5 8 5 23 10 33 10 10 0 28 7 41 15 22 15 24 15 22 -1 0 -9 6 -19 14 -21 13 -4
13 -3 0 6 -13 9 -13 12 1 27 9 9 41 24 70 34 54 17 54 17 66 -4 7 -11 12 -15
13 -8 0 7 4 11 9 7 5 -3 12 -1 16 4 3 6 -3 8 -13 6 -10 -2 -19 2 -19 10 0 9 8
10 31 4 39 -11 39 -11 30 3 -4 7 -3 8 4 4 6 -4 22 -2 34 5 18 9 15 3 -12 -27
-19 -21 -39 -42 -45 -46 -5 -4 12 -6 38 -4 52 4 52 1 -4 -32 -39 -24 -49 -21
-49 14 0 13 -4 25 -9 28 -11 7 -9 -47 3 -55 15 -11 -5 -30 -24 -24 -10 3 -22
0 -26 -6 -5 -9 -2 -10 12 -5 28 11 9 -4 -79 -63 -57 -39 -84 -50 -100 -46 -14
4 -17 3 -10 -2 12 -9 -12 -27 -222 -159 -38 -24 -70 -50 -70 -56 0 -6 -12 -15
-26 -18 -31 -9 -210 -102 -205 -108 3 -2 15 2 28 8 67 35 -153 -125 -284 -205
-128 -79 -160 -104 -88 -69 54 26 55 26 35 3 -20 -23 -20 -23 13 2 148 108
427 295 492 330 25 13 47 27 50 31 11 14 86 61 137 85 29 14 56 30 59 35 4 6
-4 5 -17 -2 -17 -8 -13 -2 11 19 19 17 40 31 45 31 6 0 23 11 39 25 35 30 37
30 64 7 11 -10 33 -17 49 -16 40 3 40 3 14 18 -20 11 -21 14 -7 19 11 4 15 3
10 -4 -8 -13 35 -2 51 12 5 5 15 9 23 9 7 0 20 7 28 15 9 8 21 15 27 15 7 0 3
-8 -8 -16 -12 -10 -14 -15 -5 -12 8 3 21 15 27 29 7 13 13 18 13 11 0 -7 5
-10 10 -7 6 4 7 11 4 17 -4 6 -3 8 3 5 9 -6 26 4 87 47 36 25 45 12 15 -21
-29 -33 -5 -16 47 33 24 23 44 34 56 31 10 -3 16 -1 12 4 -3 5 11 9 31 9 34 0
35 -1 25 -22 -11 -22 -10 -22 8 1 21 26 45 21 36 -7 -3 -9 3 -5 13 11 17 26
51 33 46 9 -3 -13 41 1 66 21 12 10 14 9 7 -7 -7 -20 -7 -20 15 0 12 10 19 13
14 5 -6 -11 -5 -12 6 -5 16 10 99 14 114 6 5 -4 23 -5 40 -4 20 2 26 0 17 -6
-11 -8 -11 -10 1 -15 8 -3 20 0 26 6 9 9 11 7 5 -8 -4 -11 -4 -17 1 -13 4 4
15 2 23 -5 13 -10 14 -9 8 1 -7 11 -4 12 13 3 25 -14 28 -47 4 -56 -10 -3 -26
-17 -37 -31 l-18 -26 28 15 c47 23 87 11 63 -20 -11 -15 -11 -16 1 -5 24 21
33 13 15 -14 -9 -15 -12 -23 -6 -20 6 4 14 0 17 -8 3 -9 10 -13 15 -10 5 3 9
1 9 -4 0 -6 -7 -12 -15 -16 -23 -8 -18 -28 5 -21 19 6 26 -7 21 -37 0 -4 6 -5
15 -1 14 5 15 3 5 -15 -15 -28 -14 -40 2 -18 16 21 72 12 63 -10 -3 -8 1 -14
9 -14 7 0 15 -6 18 -12 2 -7 3 -5 2 4 -2 14 3 17 26 14 17 -2 33 -6 36 -10 4
-4 -2 -5 -13 -4 -10 2 -19 -1 -19 -7 0 -5 8 -9 19 -7 15 2 16 0 7 -12 -10 -12
-9 -20 4 -40 11 -16 13 -26 6 -26 -6 0 -11 7 -11 16 0 8 -4 12 -10 9 -19 -12
-11 -45 10 -45 11 0 20 -4 20 -10 0 -5 -4 -10 -10 -10 -5 0 -10 -4 -10 -10 0
-5 7 -7 15 -4 8 4 15 1 15 -5 0 -14 -45 -25 -62 -15 -7 4 -10 4 -6 -1 4 -4 2
-15 -4 -24 -10 -13 -10 -14 1 -5 7 7 22 9 33 6 17 -4 19 -11 15 -39 -5 -28 -4
-31 8 -21 35 32 45 38 60 38 15 0 21 -15 7 -23 -4 -2 -2 -3 5 -1 6 1 19 -4 30
-12 17 -14 16 -15 -12 -9 -29 6 -29 6 -10 -9 17 -13 17 -15 4 -16 -9 0 -22 -6
-28 -14 -9 -11 -6 -12 15 -8 16 3 25 1 21 -5 -3 -5 -2 -15 4 -23 6 -11 9 -6 9
17 0 31 1 32 25 21 19 -8 22 -14 13 -20 -9 -5 -3 -8 17 -9 17 -1 22 -3 13 -6
-23 -6 -23 -17 -1 -39 17 -17 16 -17 -14 -11 -26 5 -31 3 -26 -8 3 -8 16 -15
29 -15 13 0 24 -4 24 -10 0 -5 5 -10 11 -10 6 0 9 7 6 15 -4 8 -2 17 4 20 5 4
9 3 8 -2 -2 -14 13 -53 21 -53 5 0 6 -9 3 -20 -6 -22 -29 -27 -36 -7 -4 9 -6
9 -6 -1 -1 -19 27 -26 46 -11 16 13 16 12 0 -13 -10 -16 -13 -28 -7 -28 6 0 8
-5 4 -11 -4 -7 4 -20 17 -30 l24 -19 -24 0 c-17 0 -22 -4 -17 -16 4 -10 -2
-23 -13 -33 -19 -17 -20 -61 -1 -61 6 0 2 -89 -4 -97 -2 -3 -55 -11 -126 -18
-36 -4 -74 -9 -85 -12 -11 -2 -48 -6 -83 -9 -35 -2 -73 -9 -85 -16 -12 -6 -29
-13 -37 -14 -68 -11 -82 -14 -90 -19 -12 -8 -44 -14 -95 -20 -22 -2 -61 -13
-85 -24 -25 -11 -53 -21 -64 -21 -10 0 -26 -8 -35 -17 -9 -10 -25 -19 -36 -21
-34 -4 -39 -7 -73 -32 -18 -13 -30 -30 -28 -37 3 -7 -1 -10 -10 -6 -10 4 -12
0 -8 -13 4 -11 4 -16 0 -12 -9 7 -50 -31 -52 -49 -3 -21 -41 -77 -68 -101 -14
-12 -26 -28 -26 -36 0 -7 -7 -19 -15 -26 -29 -24 -105 -145 -111 -178 -4 -17
-10 -30 -14 -27 -4 3 -11 -2 -14 -11 -3 -8 -2 -12 4 -9 13 8 13 3 -1 -32 -6
-15 -13 -39 -16 -53 -2 -14 -11 -38 -18 -54 -8 -16 -12 -32 -9 -37 3 -5 0 -9
-6 -9 -7 0 -9 -7 -6 -16 3 -8 2 -12 -4 -9 -5 3 -10 -4 -9 -17 1 -28 -7 -72
-20 -117 -6 -19 -8 -37 -6 -42 3 -4 1 -10 -5 -14 -6 -4 -8 -10 -6 -14 3 -4 0
-27 -6 -52 -13 -57 -18 -106 -20 -206 -1 -49 -7 -83 -13 -83 -5 0 -3 -5 5 -10
8 -5 11 -10 6 -10 -5 0 -2 -8 5 -17 10 -11 10 -14 2 -9 -9 5 -13 -2 -13 -24 0
-17 -5 -40 -10 -50 -7 -13 -7 -21 0 -25 6 -4 7 -12 3 -18 -10 -16 -13 -42 -16
-119 -1 -36 1 -64 4 -62 4 2 7 -13 8 -34 4 -88 6 -112 12 -112 11 0 -7 -63
-32 -110 -13 -25 -33 -46 -43 -48 -13 -3 -16 0 -11 10 5 7 4 10 -1 5 -5 -5 -9
-12 -9 -15 0 -13 -16 -32 -26 -32 -6 0 -7 5 -3 11 4 8 1 8 -12 1 -11 -5 -25
-7 -33 -4 -8 3 -11 0 -7 -7 4 -6 0 -11 -10 -11 -25 0 -3 -21 23 -23 15 -1 20
-7 18 -24 -1 -12 2 -20 6 -17 5 3 7 -9 5 -25 -2 -17 1 -28 5 -25 8 5 13 -10
10 -28 0 -5 4 -8 9 -8 6 0 10 -6 9 -12 -4 -32 0 -39 15 -26 7 7 11 19 8 27 -4
10 -1 12 8 6 8 -5 11 -4 7 2 -3 5 0 27 8 49 12 37 16 39 59 42 35 3 50 -1 67
-17 17 -16 26 -18 36 -10 9 8 13 8 13 0 0 -6 7 -11 15 -11 9 0 18 -7 21 -15 4
-8 10 -12 15 -9 5 3 9 0 9 -6 0 -6 4 -9 9 -5 5 3 13 0 16 -6 4 -5 13 -8 21 -5
8 3 14 0 14 -7 0 -9 3 -8 9 1 4 8 11 13 15 13 3 -1 7 -1 9 0 14 6 73 3 78 -4
4 -5 15 -5 27 2 11 6 31 11 43 11 29 0 98 70 105 109 4 17 11 31 16 31 6 0 4
7 -3 17 -8 9 -13 17 -11 17 8 3 19 76 11 76 -4 0 -6 7 -3 15 4 8 1 15 -6 15
-6 0 -10 6 -7 13 2 6 -1 21 -6 32 -6 11 -12 27 -13 35 -2 8 -8 16 -14 18 -5 2
-8 8 -4 13 3 5 -2 9 -11 9 -9 0 -13 5 -10 10 4 6 1 18 -6 26 -8 10 -12 44 -11
95 1 44 -2 78 -6 75 -5 -3 -9 1 -9 9 0 8 3 15 7 15 11 0 5 39 -8 52 -9 9 -8
16 5 30 16 18 16 18 -1 12 -16 -6 -17 -4 -8 11 6 12 7 28 1 42 -5 13 -5 23 -2
23 4 0 2 5 -5 12 -10 10 -7 24 9 48 2 3 -6 20 -19 38 -13 18 -18 32 -12 32 8
0 10 12 6 38 -10 59 -11 94 -5 134 4 26 2 41 -7 49 -8 6 -14 17 -14 23 0 6 5
4 10 -4 7 -11 10 -11 10 -2 0 7 4 11 9 8 5 -4 7 4 3 16 -4 16 -2 19 9 13 11
-6 12 -5 2 6 -18 19 -16 34 2 19 13 -11 14 -10 9 5 -6 14 -4 16 6 10 9 -5 11
-4 6 4 -4 6 -11 9 -15 7 -4 -3 -8 1 -8 8 0 9 7 12 16 8 14 -5 14 -4 2 11 -12
15 -11 21 8 41 18 19 20 28 12 49 -8 19 -7 27 1 27 6 0 4 8 -5 18 -10 10 -14
22 -10 26 4 4 6 39 5 77 -2 39 1 76 6 82 5 7 12 25 16 41 4 16 18 43 32 59 13
16 21 34 17 40 -4 7 0 8 13 3 10 -4 15 -4 12 0 -10 10 11 46 23 39 12 -8 7 17
-6 28 -6 5 -2 6 9 3 11 -4 23 -1 28 6 6 11 8 10 8 0 0 -7 5 -10 10 -7 6 4 8
10 5 15 -3 5 5 12 17 16 12 3 28 13 36 21 8 8 21 12 28 9 8 -3 14 -1 14 4 0 4
14 11 30 15 17 4 30 11 30 16 0 5 4 8 8 6 4 -1 31 8 60 21 70 30 157 65 192
77 3 1 14 6 25 10 11 5 61 21 110 36 81 24 103 27 220 24 72 -1 155 -6 185
-10 30 -4 60 -7 65 -7 17 -1 56 -62 49 -78 -3 -8 -7 -19 -8 -25 -1 -5 -6 -17
-11 -25 -24 -37 -35 -56 -41 -71 -7 -18 -56 -45 -104 -55 -46 -10 -180 -11
-180 -1 0 4 -7 7 -16 7 -8 0 -13 -4 -9 -9 3 -5 -9 -9 -27 -9 -17 1 -34 -4 -36
-10 -2 -7 -10 -12 -17 -12 -8 0 -21 -10 -29 -22 -15 -21 -16 -21 -17 -3 -1 11
-1 23 0 28 0 4 -4 7 -9 7 -6 0 -10 -10 -10 -22 0 -25 -20 -63 -20 -40 0 9 -5
10 -19 2 -18 -9 -19 -7 -16 21 4 26 2 29 -10 19 -8 -7 -15 -19 -15 -26 0 -9
-12 -14 -32 -14 -18 0 -51 -5 -73 -11 -22 -6 -53 -13 -70 -15 -25 -4 -27 -3
-12 6 9 6 22 8 27 5 6 -3 10 -1 10 4 0 6 7 11 17 11 9 0 14 3 10 6 -13 14
-105 -19 -162 -58 -60 -41 -124 -104 -125 -123 0 -5 17 7 38 26 47 45 127 109
136 109 3 0 6 -7 6 -15 0 -8 -7 -15 -15 -15 -8 0 -15 -5 -15 -11 0 -6 -7 -9
-15 -5 -8 3 -14 0 -12 -6 1 -6 -23 -31 -53 -56 -30 -25 -54 -49 -53 -53 1 -4
-21 -29 -50 -55 -28 -27 -50 -50 -49 -52 1 -1 -5 -16 -13 -33 -20 -38 -15 -54
18 -54 14 -1 23 3 20 7 -2 5 6 6 19 3 12 -3 63 -7 113 -9 55 -2 91 -8 93 -15
2 -6 12 -11 23 -11 10 0 19 -5 19 -11 0 -8 5 -7 15 1 21 18 32 3 16 -21 -19
-31 -5 -35 14 -5 18 28 33 34 32 14 0 -7 1 -22 1 -33 2 -18 3 -18 18 3 8 12
20 19 26 16 6 -4 8 -2 5 3 -4 6 3 14 16 18 14 4 17 8 9 12 -7 3 -25 -3 -40
-12 l-27 -16 28 26 c16 14 33 22 39 19 6 -4 36 -6 67 -5 44 1 53 -1 43 -11
-15 -15 -16 -38 -2 -38 6 0 10 6 10 14 0 24 27 39 47 27 16 -10 15 -10 -6 -8
-22 2 -25 -2 -27 -32 -1 -20 1 -28 6 -21 10 17 38 -37 33 -65 l-3 -20 9 20 c5
11 4 30 0 43 -11 29 -11 32 0 32 5 0 12 -8 15 -17 3 -11 4 -9 3 6 -3 42 21 35
28 -8 4 -23 11 -41 16 -41 5 0 6 17 3 38 -9 56 -8 72 4 72 4 0 6 -16 4 -35 -3
-28 -1 -35 13 -35 14 0 15 -3 6 -14 -9 -11 -9 -15 1 -19 8 -3 6 -6 -6 -6 -16
-1 -17 -3 -5 -18 10 -14 10 -15 0 -7 -17 15 -54 5 -47 -12 3 -7 0 -16 -6 -20
-7 -5 -8 -2 -3 5 6 10 3 11 -14 2 -24 -13 -29 -23 -7 -15 8 3 17 0 22 -7 4 -7
3 -10 -3 -6 -6 4 -16 0 -22 -7 -14 -17 -3 -16 43 3 16 6 31 9 34 6 3 -3 0 -5
-6 -5 -7 0 -12 -3 -12 -7 0 -5 11 -8 24 -8 16 0 21 4 15 11 -5 7 -3 11 6 11 8
0 15 -4 15 -9 0 -5 4 -7 9 -4 17 11 40 -5 33 -22 -5 -15 -4 -15 12 1 9 9 28
17 41 17 13 0 31 7 39 16 9 8 21 12 27 8 8 -4 7 -9 -2 -15 -11 -7 -11 -9 1 -9
13 0 13 -1 0 -11 -13 -9 -13 -10 0 -6 8 2 15 8 15 13 0 17 16 34 26 29 5 -4 9
0 9 7 0 10 2 10 9 0 12 -20 16 -19 42 3 12 11 19 15 16 8 -8 -12 29 -13 49 -1
6 4 10 -4 10 -18 0 -25 -10 -32 -19 -14 -3 6 -4 5 -3 -2 4 -19 20 -20 41 -2
11 8 15 13 9 10 -12 -6 -12 29 0 41 4 5 7 4 6 -2 -5 -23 1 -28 14 -10 12 16
16 17 30 6 21 -17 21 -3 0 20 -10 11 -12 19 -4 24 6 3 9 3 8 -2 -3 -9 5 -13
27 -13 8 0 15 5 15 11 0 5 -5 7 -10 4 -6 -3 -10 1 -10 11 0 13 3 14 14 5 15
-13 49 -4 40 10 -3 5 3 6 12 2 11 -4 13 -8 6 -11 -18 -6 -14 -19 7 -25 14 -3
17 0 14 12 -2 10 2 23 11 30 12 10 14 9 9 -7 -7 -27 14 -63 32 -56 9 4 15 0
15 -10 0 -9 -4 -16 -10 -16 -5 0 -10 -5 -10 -11 0 -5 5 -7 10 -4 6 3 10 1 10
-4 0 -6 -6 -11 -14 -11 -15 0 -28 -24 -19 -34 13 -12 22 -5 17 12 -5 16 -5 16
6 -1 8 -12 8 -22 1 -35 -6 -9 -11 -12 -11 -6 0 7 -7 14 -15 18 -12 4 -13 2 -6
-13 6 -10 8 -21 5 -24 -3 -3 0 -15 6 -27 9 -17 9 -25 0 -34 -8 -8 -10 -7 -6 4
3 8 2 21 -3 28 -7 12 -14 11 -39 -2 -17 -9 -34 -22 -38 -28 -6 -10 -3 -9 9 0
9 8 21 11 26 8 11 -7 3 -37 -13 -48 -7 -5 -7 -8 -1 -8 6 0 10 -14 11 -30 1
-23 -3 -30 -15 -29 -28 2 -34 -1 -24 -13 6 -7 13 -29 17 -48 4 -25 3 -31 -4
-20 -8 13 -10 13 -10 -1 0 -9 -10 -29 -21 -43 -17 -21 -24 -25 -30 -14 -7 10
-9 9 -9 -4 0 -10 5 -18 11 -18 5 0 7 -5 4 -10 -4 -6 -1 -19 7 -28 11 -15 11
-15 -3 -5 -9 7 -20 9 -24 5 -5 -4 -5 -2 -1 5 3 6 2 14 -4 18 -11 7 -13 -3 -10
-51 1 -18 -3 -35 -9 -39 -6 -3 -11 -1 -11 5 0 15 -23 -7 -39 -38 -7 -12 -16
-20 -21 -17 -5 3 -14 -4 -20 -15 -6 -11 -8 -20 -4 -20 3 0 2 -6 -4 -13 -7 -8
-7 -18 -2 -27 11 -17 12 -16 15 25 2 17 3 32 4 35 3 16 37 3 39 -15 1 -14 -1
-16 -7 -6 -7 11 -11 10 -19 -5 -5 -11 -11 -23 -12 -29 -5 -22 -28 -46 -35 -36
-3 6 -4 15 -1 19 2 4 1 14 -3 21 -6 9 -11 10 -15 2 -4 -6 -3 -11 2 -11 6 0 8
-9 5 -20 -3 -11 -9 -17 -14 -15 -4 3 -13 -5 -20 -17 -9 -19 -9 -21 2 -10 21
19 34 14 16 -6 -10 -10 -14 -22 -10 -26 4 -4 -1 -4 -12 0 -17 7 -18 6 -7 -8 9
-11 10 -18 2 -23 -6 -3 -8 -10 -5 -15 3 -5 1 -11 -5 -15 -14 -9 -12 19 3 34
10 10 9 11 -5 6 -10 -4 -18 -15 -18 -26 0 -10 -12 -29 -27 -43 -27 -26 -10
-32 20 -8 11 9 17 10 22 2 4 -6 2 -9 -3 -8 -6 2 -11 -1 -13 -7 -4 -18 -32 -32
-53 -27 -21 4 -21 4 -1 -11 18 -15 19 -16 2 -17 -10 0 -15 -5 -12 -10 10 -16
-5 -51 -18 -44 -7 4 -9 4 -5 -1 4 -4 1 -17 -7 -27 -7 -11 -11 -27 -8 -36 5
-11 3 -13 -8 -7 -12 7 -12 6 -1 -7 7 -8 9 -24 5 -33 -4 -13 -3 -16 5 -11 8 5
10 2 6 -8 -6 -16 -25 -23 -23 -9 1 5 1 16 0 26 -1 21 -18 23 -18 2 0 -8 3 -15
7 -15 3 0 6 -13 6 -29 0 -17 -3 -28 -7 -25 -15 9 -50 -40 -44 -63 6 -26 -5
-36 -25 -21 -12 8 -12 9 3 4 17 -6 24 8 8 18 -15 10 -28 -18 -26 -59 1 -29 -4
-45 -19 -58 -12 -10 -16 -16 -9 -13 6 4 14 3 17 -2 2 -4 -5 -9 -16 -9 -12 -1
-26 -7 -32 -13 -8 -9 -4 -11 16 -8 15 1 27 -1 27 -7 0 -5 -9 -9 -20 -7 -10 2
-22 -4 -25 -12 -3 -9 -10 -13 -15 -10 -8 5 -13 -20 -13 -68 0 -9 -3 -15 -8
-12 -4 3 -8 12 -8 20 0 8 -4 14 -10 14 -5 0 -10 -7 -10 -15 0 -8 -13 -27 -28
-43 -21 -21 -37 -29 -58 -27 -18 1 -40 -6 -53 -17 -23 -18 -23 -19 -6 -38 16
-18 16 -20 2 -20 -10 0 -14 -5 -11 -15 4 -8 1 -15 -5 -15 -6 0 -11 -11 -11
-24 0 -25 -22 -51 -33 -39 -4 3 -7 -2 -7 -11 0 -12 -5 -16 -16 -12 -9 4 -13 2
-8 -5 4 -6 0 -15 -7 -20 -7 -4 -10 -11 -6 -15 3 -4 12 -2 19 4 9 7 17 6 27 -5
12 -13 11 -14 -7 -9 -11 4 -23 2 -27 -5 -6 -8 -10 -7 -16 2 -7 11 -12 10 -26
-5 -15 -15 -15 -18 -2 -13 9 3 16 0 16 -6 0 -7 4 -21 9 -31 5 -15 4 -17 -6
-11 -9 5 -11 4 -6 -4 6 -9 11 -9 22 0 7 6 20 9 29 6 8 -4 17 -2 20 3 4 6 11
10 18 10 6 0 0 -11 -15 -25 -29 -26 -54 -34 -43 -13 4 7 -2 3 -13 -9 -11 -12
-23 -19 -27 -15 -5 4 -5 1 -1 -5 10 -19 26 -16 26 5 1 15 2 15 12 -2 8 -15 8
-21 0 -24 -7 -2 -12 -10 -12 -18 0 -8 -4 -14 -10 -14 -5 0 -10 -8 -10 -17 0
-15 2 -16 10 -3 7 12 10 12 10 1 0 -7 6 -11 15 -7 8 3 15 1 15 -4 0 -6 -7 -10
-15 -10 -13 0 -14 -4 -5 -21 7 -11 9 -23 6 -26 -3 -3 -8 1 -12 10 -5 15 -8 15
-21 1 -9 -8 -22 -13 -29 -10 -8 3 -14 -1 -14 -10 0 -12 4 -13 21 -4 11 7 23 9
26 6 8 -8 -7 -27 -17 -21 -13 8 -33 -34 -27 -56 3 -12 0 -19 -10 -19 -8 0 -12
4 -9 9 8 13 -14 71 -27 71 -8 0 -8 -3 0 -11 9 -9 8 -15 -3 -26 -8 -8 -12 -19
-9 -24 4 -5 2 -9 -4 -9 -6 0 -8 -6 -5 -14 7 -19 -15 -31 -29 -16 -9 10 -9 11
1 6 15 -9 16 10 1 20 -8 5 -6 10 5 16 9 5 16 14 16 19 0 6 -8 3 -17 -7 -10
-10 -18 -22 -18 -28 0 -13 -68 -8 -73 5 -2 5 -7 7 -11 5 -4 -3 -12 4 -19 15
-12 18 -11 19 10 7 13 -7 26 -17 30 -22 4 -6 16 -5 30 1 13 7 17 12 10 12 -7
1 -10 6 -7 11 3 6 1 10 -4 10 -6 0 -11 -7 -11 -17 0 -14 -2 -14 -20 2 -12 11
-18 27 -16 41 3 13 -1 25 -7 27 -9 3 -8 8 2 20 12 15 11 17 -5 18 -11 0 -14 3
-6 6 6 2 10 9 7 14 -4 5 1 6 10 3 10 -4 15 -2 13 7 -2 9 5 13 21 11 20 -2 22
0 11 13 -10 12 -10 15 0 15 8 0 11 13 8 42 -3 29 0 46 9 53 14 11 8 49 -7 40
-4 -2 -17 7 -28 20 -12 14 -27 25 -33 25 -5 0 -7 5 -4 10 3 6 1 10 -5 10 -6 0
-8 5 -5 10 3 6 -1 10 -10 10 -14 0 -42 26 -83 74 -7 9 -18 16 -25 15 -9 0 -9
-2 1 -6 6 -2 12 -11 12 -19 0 -10 -8 -7 -25 11 -25 24 -52 35 -40 15 3 -5 1
-10 -5 -10 -6 0 -13 7 -16 15 -5 12 -10 13 -19 5 -10 -8 -15 -6 -19 8 -7 20
-36 26 -36 8 -1 -6 -10 0 -21 14 -19 23 -56 39 -43 19 3 -5 0 -9 -5 -9 -6 0
-11 10 -12 23 0 12 -3 16 -6 10 -6 -17 -23 -16 -23 1 0 8 -11 13 -27 14 -49 0
-54 2 -47 14 4 6 3 8 -4 4 -5 -3 -12 -2 -14 4 -2 6 -8 2 -15 -9 -10 -16 -9
-18 7 -14 26 7 39 -36 15 -53 -10 -8 -23 -10 -29 -6 -13 8 -34 13 -58 15 -21
2 -21 2 -7 30 11 22 11 22 -10 0 -23 -24 -48 -32 -35 -11 5 7 1 9 -12 6 -10
-3 -26 -7 -34 -9 -8 -2 -18 -8 -22 -14 -5 -6 -8 -3 -8 7 0 9 8 19 18 21 9 3 0
4 -21 2 -48 -4 -107 -24 -107 -36 0 -5 8 -9 18 -9 14 0 15 -2 2 -10 -19 -12
-33 -13 -26 -1 8 13 -21 34 -35 26 -6 -4 -15 -1 -20 6 -6 10 -9 7 -9 -10 0
-24 0 -24 -15 -5 -15 19 -15 19 -8 -1 6 -17 5 -18 -9 -5 -14 13 -14 16 1 28
14 12 12 13 -14 7 -20 -4 -25 -2 -16 3 10 7 10 11 1 17 -6 4 -14 5 -17 1 -3
-3 -12 2 -20 10 -9 9 -20 11 -27 6 -6 -5 -22 -6 -36 -2 -22 5 -26 12 -31 67
-9 96 -94 223 -149 223 -34 0 -45 -14 -49 -60 -1 -19 -7 -39 -12 -45 -5 -5 -9
-23 -9 -41 0 -41 -20 -56 -70 -56 -23 1 -40 -4 -40 -10 0 -6 3 -9 6 -6 3 3 28
0 55 -7 74 -20 77 -19 171 64 15 13 25 28 21 34 -3 5 0 8 7 5 20 -6 20 -51 1
-68 -23 -21 -64 -44 -57 -32 3 6 -2 8 -13 5 -23 -6 -36 -32 -51 -105 -6 -32
-15 -58 -19 -58 -4 0 -18 -10 -30 -21 -18 -17 -20 -23 -9 -30 10 -6 10 -9 1
-9 -7 0 -13 -7 -13 -16 0 -17 -49 -146 -59 -154 -9 -7 -44 -81 -81 -170 -17
-41 -38 -89 -46 -107 -8 -17 -14 -38 -14 -47 0 -9 -11 -22 -25 -28 -19 -9 -25
-19 -25 -45 0 -18 -4 -33 -10 -33 -5 0 -10 -6 -10 -14 0 -8 -6 -16 -14 -19 -8
-3 -12 -15 -9 -31 3 -14 2 -34 -2 -43 -4 -10 -9 -33 -12 -50 -3 -25 0 -33 12
-33 9 0 13 -5 9 -11 -3 -6 -1 -15 7 -20 10 -6 14 -41 15 -138 1 -71 4 -134 8
-139 3 -5 1 -24 -4 -43 -5 -18 -6 -35 -2 -38 10 -8 11 -41 1 -41 -15 0 -10
-19 9 -38 16 -16 60 -143 67 -195 2 -12 5 -40 9 -63 3 -22 12 -53 20 -68 l14
-28 8 24 c4 12 7 27 6 32 -2 4 0 17 4 28 5 16 8 18 15 7 6 -9 9 -10 9 -2 0 6
7 18 15 26 8 9 16 36 17 61 2 25 6 46 10 46 8 0 7 2 -27 292 -27 231 -27 229
14 371 11 37 31 123 46 192 27 127 46 188 69 211 22 22 87 44 128 44 69 0 93
-21 118 -101 20 -64 22 -86 17 -221 -3 -87 -9 -153 -15 -157 -6 -3 -9 -20 -8
-37 1 -24 -2 -30 -18 -30 -19 1 -21 -6 -23 -93 -1 -52 -4 -105 -7 -117 -4 -14
-2 -24 4 -24 5 0 10 -7 10 -15 0 -8 -4 -15 -10 -15 -5 0 -10 -4 -10 -10 0 -6
9 -6 26 0 33 13 32 14 26 -16 -5 -26 -4 -26 20 -10 23 15 25 15 26 -1 5 -44 3
-124 -3 -144 -5 -16 -4 -19 6 -14 12 8 12 6 -7 -53 -3 -12 4 -30 19 -48 13
-16 22 -35 20 -41 -3 -7 0 -13 6 -13 6 0 11 -9 11 -20 0 -11 5 -20 11 -20 5 0
7 -5 3 -12 -5 -7 -2 -9 8 -6 8 4 15 1 15 -5 0 -7 4 -28 7 -47 7 -33 4 -38 -46
-81 -69 -59 -85 -67 -142 -71 -39 -2 -52 -8 -68 -30 -28 -41 -31 -68 -7 -68
23 0 76 26 97 46 18 18 70 18 88 0 11 -11 11 -21 3 -45 -9 -24 -26 -37 -92
-69 -120 -58 -210 -54 -194 7 7 27 -15 30 -88 13 -90 -20 -97 -22 -132 -27
-18 -2 -35 0 -38 5 -3 4 -14 6 -25 3 -13 -4 -26 1 -35 13 -15 19 -15 18 -33
-2 -17 -20 -24 -24 -43 -24 -5 0 -8 -4 -5 -9 14 -22 -130 -35 -167 -15 -7 4
-5 -1 4 -10 21 -23 69 -33 191 -42 71 -5 111 -3 138 6 34 11 43 10 82 -9 25
-11 49 -21 54 -21 5 0 44 -20 87 -45 87 -50 172 -71 241 -61 35 6 51 15 73 42
85 105 74 97 148 101 52 3 74 -1 94 -14 14 -10 28 -18 31 -18 14 -2 50 -31 50
-41 0 -22 37 -44 73 -44 20 0 56 6 79 14 24 8 64 17 89 20 42 6 47 5 52 -15 8
-31 -9 -117 -38 -188 -14 -33 -25 -63 -25 -66 0 -3 196 -5 435 -5 239 1 435 4
435 9 0 10 31 8 49 -4 11 -6 13 -4 8 7 -3 9 2 23 13 33 11 10 17 22 14 27 -4
5 38 52 92 104 152 145 167 160 200 201 17 21 37 49 44 63 18 35 71 90 97 101
13 5 35 33 52 67 16 32 50 80 74 108 25 28 49 63 53 79 4 15 19 35 35 44 20
11 27 21 23 34 -7 21 11 71 38 106 10 13 18 40 18 60 0 20 8 59 18 86 22 62
72 155 84 155 4 0 8 5 8 12 0 6 7 20 17 30 11 12 16 33 15 64 -2 43 18 113 63
218 13 30 19 36 26 25 7 -11 9 -11 9 -1 0 7 5 10 11 6 6 -3 15 0 20 7 7 11 9
11 9 1 0 -7 8 -21 17 -30 16 -16 16 -16 11 4 -3 13 -1 21 8 21 7 0 15 -9 17
-19 3 -10 1 -18 -5 -18 -5 0 -2 -7 6 -16 9 -8 16 -28 16 -44 0 -25 -5 -31 -38
-39 -20 -6 -59 -12 -86 -14 -27 -1 -51 -8 -53 -14 -2 -6 4 -10 14 -9 12 0 19
-7 21 -22 4 -27 21 -28 48 -4 16 15 54 20 54 7 0 -13 -24 -54 -30 -50 -4 2
-21 -8 -39 -24 -29 -26 -30 -29 -12 -34 12 -3 23 -18 28 -38 5 -18 13 -34 19
-36 16 -5 87 143 79 167 -4 11 -2 20 4 20 6 0 11 -13 11 -29 0 -17 4 -33 10
-36 5 -3 8 -30 7 -60 -2 -45 -5 -54 -18 -50 -9 3 -21 -1 -28 -9 -7 -8 -23 -17
-38 -20 -25 -7 -25 -8 -18 -74 4 -37 12 -73 17 -79 7 -9 7 -22 -1 -41 -7 -16
-13 -39 -13 -53 -1 -13 -6 -30 -12 -38 -8 -11 -8 -13 2 -7 20 12 4 -45 -18
-64 -30 -27 -41 -58 -34 -96 5 -28 2 -40 -15 -58 -18 -19 -21 -34 -20 -92 0
-38 5 -81 11 -96 12 -34 -2 -61 -40 -77 -40 -17 -82 0 -82 33 0 14 -5 28 -10
31 -6 3 -7 17 -4 31 5 20 2 24 -15 24 -22 0 -30 -33 -11 -45 8 -5 8 -11 0 -20
-8 -10 -8 -19 2 -34 10 -16 10 -23 0 -33 -6 -6 -12 -24 -12 -38 0 -19 -8 -30
-25 -38 -14 -6 -25 -18 -25 -27 0 -10 -10 -15 -33 -15 -34 0 -87 -20 -87 -32
0 -5 16 -8 35 -8 42 0 47 -20 11 -43 -68 -45 -105 -98 -87 -126 7 -11 15 -8
37 15 50 51 103 87 119 80 9 -3 14 -2 11 3 -8 12 32 51 54 51 32 0 51 27 38
55 -14 31 -3 62 16 46 7 -6 15 -8 18 -5 3 3 17 -4 29 -16 13 -12 37 -32 54
-45 28 -22 29 -24 13 -42 -9 -10 -19 -30 -23 -45 -9 -34 -145 -158 -174 -158
-12 0 -21 6 -21 14 0 27 12 46 29 46 17 0 41 18 41 31 0 4 -15 3 -32 -2 -18
-5 -52 -9 -75 -9 -23 0 -45 -4 -48 -10 -3 -5 -14 -10 -25 -10 -20 0 -30 -19
-30 -60 0 -33 4 -37 51 -45 19 -3 36 -10 37 -16 2 -5 26 -9 53 -9 36 0 49 4
49 15 0 15 29 35 53 35 10 0 13 -8 9 -25 -4 -23 -1 -25 33 -25 32 0 36 3 33
23 -2 14 -11 23 -26 25 -23 3 -23 4 -6 23 9 10 30 19 46 19 23 0 28 -4 28 -25
0 -16 6 -25 15 -25 12 0 15 9 13 34 -1 19 4 41 11 49 7 9 11 21 10 29 -3 27 2
37 21 43 11 3 20 13 20 21 0 18 86 104 105 104 7 0 16 7 19 16 5 12 8 13 20 2
11 -11 10 -16 -10 -35 -16 -15 -24 -33 -24 -56 0 -41 19 -60 57 -55 28 3 28 3
25 71 -1 37 2 76 8 86 7 15 6 23 -5 34 -13 14 -8 21 42 64 78 67 94 85 90 103
-1 8 -10 14 -20 14 -15 -2 -15 0 -2 19 19 28 19 46 -1 68 -16 17 -15 19 10 29
15 5 31 10 35 10 12 0 61 40 61 50 0 19 -36 19 -75 0 -23 -11 -55 -20 -73 -20
-41 0 -47 -12 -47 -93 0 -64 -2 -69 -32 -92 -17 -14 -34 -38 -38 -54 -7 -35
-45 -81 -65 -81 -13 0 -13 -2 0 -10 13 -9 13 -11 0 -20 -8 -5 -23 -10 -33 -10
-14 0 -17 -5 -12 -20 5 -15 0 -21 -27 -28 -38 -10 -51 4 -23 25 26 18 12 27
-23 15 -25 -9 -33 -7 -56 15 -15 14 -33 22 -41 20 -7 -3 -16 -3 -19 0 -8 9 26
32 47 33 10 0 38 19 62 43 24 23 59 54 79 70 22 17 40 42 48 68 6 23 18 43 25
46 14 6 43 59 43 80 0 12 9 13 38 8 29 -5 42 -2 52 9 30 38 -41 63 -74 27 -11
-12 -31 -19 -51 -19 -32 0 -34 2 -24 20 6 11 24 27 40 36 27 15 30 21 27 62
-3 59 44 159 82 173 25 10 25 10 19 96 -4 50 -3 87 2 89 5 2 9 21 9 43 0 31 5
42 23 50 39 18 66 71 60 116 -3 25 -1 43 6 47 19 12 13 46 -9 46 -21 0 -25 7
-12 28 5 7 16 10 24 7 20 -8 30 8 32 54 3 52 46 138 74 145 12 4 22 14 22 24
0 9 3 13 8 7 10 -14 64 -13 69 2 5 13 -57 83 -73 83 -11 0 -24 30 -24 57 0 24
30 40 78 41 45 1 52 -2 85 -37 44 -47 76 -60 92 -37 7 8 16 12 20 8 5 -4 5 -2
2 4 -7 13 14 74 25 74 4 0 8 -4 8 -10 0 -5 7 -7 15 -4 9 4 15 0 15 -9 0 -8 6
-18 13 -21 9 -5 9 -7 -1 -12 -6 -3 -10 -10 -6 -15 3 -5 -3 -9 -13 -9 -25 -1
-53 -24 -53 -44 0 -9 16 -32 35 -52 19 -19 35 -41 35 -50 0 -8 12 -17 29 -20
l28 -6 1 -111 c1 -62 -3 -119 -8 -127 -6 -9 -10 -10 -10 -3 0 17 -30 44 -41
38 -5 -4 -9 -17 -9 -30 0 -18 7 -26 25 -31 23 -6 24 -8 19 -72 -3 -37 -13 -92
-22 -122 -9 -30 -17 -71 -18 -90 -3 -83 -20 -149 -61 -242 -23 -56 -43 -109
-43 -120 0 -17 -18 -66 -86 -231 -13 -32 -38 -78 -54 -102 -17 -24 -30 -55
-30 -68 0 -13 -16 -55 -36 -93 -77 -148 -125 -232 -139 -244 -8 -7 -15 -18
-15 -25 0 -7 -10 -24 -21 -39 l-21 -27 62 3 63 3 30 60 c28 55 31 58 41 36 7
-15 6 -35 -1 -62 l-11 -40 32 3 c28 3 32 7 43 53 6 28 12 84 12 126 l1 77 31
6 c17 3 35 3 40 0 15 -9 49 16 49 36 0 10 5 22 10 25 7 4 -4 21 -25 40 -27 26
-35 42 -35 68 0 35 4 39 73 61 9 3 17 14 17 25 0 35 24 49 70 41 51 -9 61 6
31 47 -11 15 -21 41 -23 57 -3 24 3 32 37 52 27 16 49 22 69 19 19 -3 36 1 47
11 20 18 56 21 102 9 24 -7 28 -5 25 10 -2 10 -21 23 -47 32 -41 14 -44 13
-58 -6 -7 -11 -24 -21 -36 -21 -35 1 -91 -12 -104 -22 -21 -17 -43 -1 -43 30
0 19 12 40 40 67 22 21 40 45 40 53 0 7 -10 30 -22 52 -21 36 -22 42 -9 87 17
62 31 158 36 256 3 46 12 91 22 110 9 18 16 44 14 59 -2 18 4 31 18 40 25 15
28 60 6 78 -24 20 -18 40 15 51 26 9 30 16 30 46 0 30 3 35 20 30 10 -3 21 0
23 7 3 8 7 8 18 -1 8 -6 16 -11 19 -11 3 -1 18 -5 33 -11 42 -16 65 -13 77 9
22 41 -19 54 -67 23 -19 -13 -28 -14 -31 -5 -2 6 -10 12 -18 12 -8 0 -14 7
-14 15 0 24 -20 17 -54 -19 -30 -33 -32 -34 -58 -20 -16 8 -28 16 -29 17 0 1
-3 33 -6 71 l-5 69 55 -5 56 -5 -6 31 c-6 38 -36 66 -63 59 -15 -4 -20 0 -20
16 0 26 32 79 45 75 6 -2 19 3 30 12 16 12 17 17 7 23 -11 7 -11 9 2 14 9 4
19 -1 24 -10 7 -11 -1 -26 -29 -55 -21 -22 -43 -37 -48 -33 -6 3 -11 4 -11 0
0 -12 53 -26 60 -15 5 8 20 6 51 -4 24 -9 66 -16 93 -16 l49 0 -34 31 c-19 17
-49 37 -66 45 -18 8 -33 20 -33 27 0 27 22 87 37 102 8 9 16 27 16 40 0 22 3
23 85 27 52 2 87 7 89 15 3 8 12 7 33 -4 31 -15 50 -11 50 11 0 19 -78 50 -94
37 -9 -7 -16 -7 -24 1 -30 30 0 68 37 48 10 -5 21 -6 25 -3 3 3 6 1 6 -6 0
-23 54 -8 67 19 11 23 9 28 -24 62 l-37 38 58 0 c31 0 55 -4 52 -9 -3 -5 5
-12 19 -15 78 -20 188 -125 154 -147 -8 -5 -17 -9 -21 -9 -5 0 -8 -11 -8 -25
0 -28 25 -45 69 -45 23 0 35 -7 48 -27 9 -16 27 -39 39 -53 12 -14 25 -35 29
-48 7 -23 8 -23 26 -6 19 17 21 17 58 -26 28 -33 42 -42 58 -38 22 6 34 -13
46 -67 3 -11 5 24 6 77 1 74 -2 99 -13 105 -8 4 -34 26 -58 48 -23 22 -87 78
-141 124 -102 87 -114 109 -64 122 16 4 25 3 21 -2 -3 -5 1 -9 10 -9 8 0 23
-3 33 -6 16 -5 16 -4 -1 10 -15 12 -16 16 -5 16 10 1 9 4 -4 11 -10 6 -25 8
-33 5 -26 -10 -51 11 -50 41 1 25 5 28 31 27 17 -1 57 -14 90 -29 50 -24 61
-26 78 -15 18 11 24 9 44 -14 13 -15 23 -36 23 -47 0 -25 17 -59 30 -59 7 0
10 963 10 2675 l0 2675 -3840 0 -3840 0 0 -3840z m3695 2558 c-2 -10 1 -18 6
-18 6 0 7 -5 4 -11 -4 -6 -14 -8 -23 -4 -9 3 -13 3 -9 -1 9 -9 -30 -37 -42
-30 -5 4 -11 1 -13 -5 -4 -12 -78 -19 -78 -9 0 15 42 38 64 36 14 -2 23 1 20
6 -3 5 -13 7 -23 3 -12 -5 -13 -4 -4 6 7 7 28 13 48 14 35 2 63 15 32 15 -9 0
-18 3 -20 8 -3 4 5 7 18 7 16 0 22 -5 20 -17z m70 12 c-3 -5 -12 -10 -18 -10
-7 0 -6 4 3 10 19 12 23 12 15 0z m135 -15 c0 -2 -10 -9 -22 -15 -22 -11 -22
-10 -4 4 21 17 26 19 26 11z m-140 -19 c0 -2 -12 -11 -27 -20 l-28 -17 24 20
c23 21 31 25 31 17z m-385 -16 c3 -5 -1 -10 -10 -10 -9 0 -13 5 -10 10 3 6 8
10 10 10 2 0 7 -4 10 -10z m-71 -12 c-5 -8 -2 -9 9 -5 10 3 17 2 17 -3 0 -12
-27 -13 -34 -1 -3 4 -3 11 1 15 10 10 15 7 7 -6z m-14 -23 c0 -2 -6 -5 -13 -8
-8 -3 -14 1 -14 8 0 7 6 11 14 8 7 -3 13 -6 13 -8z m755 -6 c-10 -15 -25 -10
-19 6 4 8 10 12 15 9 5 -3 7 -10 4 -15z m-285 -4 c-7 -8 -16 -12 -21 -9 -5 3
-9 0 -9 -5 0 -6 -32 -27 -71 -46 -82 -42 -82 -30 -1 22 45 29 78 45 111 52 2
1 -2 -6 -9 -14z m-115 -11 c-24 -18 -83 -50 -73 -39 10 10 81 54 88 54 3 0 -4
-7 -15 -15z m-70 -64 c-3 -5 -16 -15 -28 -21 -19 -9 -19 -8 3 10 28 23 34 26
25 11z m-93 -65 c-35 -29 -137 -78 -152 -73 -6 2 6 12 27 23 21 10 46 26 56
34 17 14 68 37 90 40 5 0 -5 -10 -21 -24z m-1190 -85 c-84 -81 -101 -94 -83
-62 17 28 144 141 161 141 3 0 -32 -35 -78 -79z m1169 40 c-13 -11 -28 -20
-35 -20 -6 0 3 9 19 20 38 25 47 25 16 0z m923 -41 c-3 -5 -10 -7 -15 -3 -5 3
-7 10 -3 15 3 5 10 7 15 3 5 -3 7 -10 3 -15z m-2224 -52 c0 -2 -15 -16 -32
-33 l-33 -29 29 33 c28 30 36 37 36 29z m10 -41 c0 -2 -8 -10 -17 -17 -16 -13
-17 -12 -4 4 13 16 21 21 21 13z m2314 -14 c3 -5 -1 -9 -9 -9 -8 0 -15 4 -15
9 0 4 4 8 9 8 6 0 12 -4 15 -8z m74 -17 c-3 -3 -9 2 -12 12 -6 14 -5 15 5 6 7
-7 10 -15 7 -18z m-2448 -45 c-17 -22 -37 -43 -43 -47 -11 -6 4 15 47 65 33
37 30 25 -4 -18z m-32 -69 c-18 -22 -35 -38 -37 -35 -4 4 59 74 67 74 2 0 -12
-18 -30 -39z m-138 10 c0 -13 -41 -63 -47 -57 -3 3 5 18 18 35 26 33 29 35 29
22z m8 -47 c-7 -15 -14 -21 -16 -15 -2 7 2 18 8 26 18 22 21 18 8 -11z m932
12 c0 -2 -7 -7 -16 -10 -8 -3 -12 -2 -9 4 6 10 25 14 25 6z m-972 -51 c-6 -14
-13 -23 -15 -21 -5 5 15 46 22 46 3 0 -1 -11 -7 -25z m-28 -19 c0 -2 -13 -20
-30 -41 -16 -21 -30 -32 -30 -24 0 7 12 26 27 41 26 27 33 32 33 24z m90 -46
c-6 -11 -13 -20 -16 -20 -2 0 0 9 6 20 6 11 13 20 16 20 2 0 0 -9 -6 -20z
m-116 -25 c-30 -39 -30 -39 -40 -23 -4 6 -3 8 3 5 5 -3 20 7 32 23 12 17 24
30 27 30 3 0 -7 -16 -22 -35z m66 31 c0 -2 -8 -10 -17 -17 -16 -13 -17 -12 -4
4 13 16 21 21 21 13z m290 -16 c0 -5 -5 -10 -11 -10 -5 0 -7 5 -4 10 3 6 8 10
11 10 2 0 4 -4 4 -10z m-372 -86 c-19 -44 -48 -81 -48 -60 0 9 5 16 11 16 6 0
8 10 5 23 -3 12 -3 16 0 8 5 -9 11 -3 20 19 8 18 17 31 20 28 2 -3 -1 -18 -8
-34z m95 -61 c-56 -103 -73 -129 -73 -114 0 21 93 181 105 181 3 0 -12 -30
-32 -67z m-60 32 c-3 -9 -8 -14 -10 -11 -3 3 -2 9 2 15 9 16 15 13 8 -4z
m2997 -205 c0 -5 -2 -10 -4 -10 -3 0 -8 5 -11 10 -3 6 -1 10 4 10 6 0 11 -4
11 -10z m-546 -856 c3 -8 2 -12 -4 -9 -6 3 -10 10 -10 16 0 14 7 11 14 -7z
m97 -161 c3 -87 12 -116 53 -162 l21 -24 -71 7 c-39 3 -87 12 -106 20 -19 8
-45 12 -58 9 -18 -5 -21 -3 -15 8 6 11 5 12 -6 2 -7 -7 -16 -13 -20 -13 -11 0
-42 71 -34 78 9 9 36 -28 29 -39 -3 -5 0 -9 6 -9 6 0 10 8 9 18 -3 32 1 38 47
77 43 35 100 63 132 65 7 0 12 -15 13 -37z m185 11 c7 3 16 1 19 -4 4 -6 -4
-10 -16 -10 -12 0 -30 -7 -40 -16 -24 -21 -49 -11 -49 20 0 23 2 24 36 14 20
-5 42 -7 50 -4z m-100 -112 c-14 -13 -18 11 -10 55 l9 48 3 -49 c2 -26 1 -51
-2 -54z m44 -12 c0 -5 -2 -10 -4 -10 -3 0 -8 5 -11 10 -3 6 -1 10 4 10 6 0 11
-4 11 -10z m-400 -30 c0 -13 -30 -13 -50 0 -11 7 -7 10 18 10 17 0 32 -4 32
-10z m524 -105 c-4 -8 -11 -12 -16 -9 -6 4 -5 10 3 15 19 12 19 11 13 -6z
m113 -37 c-3 -8 -6 -5 -6 6 -1 11 2 17 5 13 3 -3 4 -12 1 -19z m599 -30 c3 -4
-1 -5 -10 -4 -8 1 -18 5 -22 8 -3 4 1 5 10 4 8 -1 18 -5 22 -8z m-1569 -100
c-3 -8 -6 -5 -6 6 -1 11 2 17 5 13 3 -3 4 -12 1 -19z m1053 8 c0 -2 -7 -7 -16
-10 -8 -3 -12 -2 -9 4 6 10 25 14 25 6z m460 -180 c0 -3 -4 -8 -10 -11 -5 -3
-10 -1 -10 4 0 6 5 11 10 11 6 0 10 -2 10 -4z m-53 -191 c0 -8 -6 -16 -14 -19
-11 -4 -11 -1 -3 14 13 24 17 25 17 5z m-125 -182 c-6 -3 -9 -10 -6 -15 4 -7
2 -8 -5 -4 -9 6 -9 11 0 22 6 8 15 12 18 8 3 -4 0 -9 -7 -11z m-219 -383 c-3
-11 -7 -20 -9 -20 -2 0 -4 9 -4 20 0 11 4 20 9 20 5 0 7 -9 4 -20z m-1252 -31
c13 -12 23 -25 22 -30 -2 -5 1 -9 6 -9 14 0 18 -32 8 -62 -16 -48 -57 -32 -57
22 0 10 -11 32 -25 48 -18 22 -21 32 -13 40 17 17 32 15 59 -9z m1216 -41 c-3
-8 -6 -5 -6 6 -1 11 2 17 5 13 3 -3 4 -12 1 -19z m-64 -155 c-7 -2 -13 -11
-13 -19 0 -8 -5 -14 -10 -14 -7 0 -7 6 0 20 6 11 16 20 23 19 9 0 9 -2 0 -6z
m2019 -250 c9 -8 15 -20 13 -26 -12 -34 48 -62 93 -45 23 9 34 7 55 -7 l27
-17 -23 -28 c-21 -26 -23 -27 -47 -10 -33 23 -71 31 -86 19 -17 -14 -41 -1
-64 36 -19 31 -24 85 -7 85 4 0 5 5 1 12 -8 13 12 3 38 -19z m93 17 c3 -5 13
-6 22 -3 12 5 15 2 10 -10 -3 -8 -1 -18 6 -20 9 -3 9 -7 0 -17 -9 -9 -15 -6
-29 16 -10 16 -23 32 -29 36 -6 5 -6 8 2 8 6 0 14 -4 18 -10z m-3247 -175 c-3
-3 -9 2 -12 12 -6 14 -5 15 5 6 7 -7 10 -15 7 -18z m114 -8 c3 -15 0 -24 -9
-24 -13 0 -18 29 -6 40 9 10 10 9 15 -16z m726 10 c-13 -15 -38 -18 -38 -6 0
7 18 14 43 18 4 0 2 -5 -5 -12z m-1136 -29 c-5 -19 -7 -20 -10 -5 -2 9 -8 14
-14 11 -7 -4 -8 -2 -4 4 13 22 35 14 28 -10z m48 -3 c11 -13 10 -14 -4 -9 -9
3 -16 10 -16 15 0 13 6 11 20 -6z m430 -5 c0 -5 -2 -10 -4 -10 -3 0 -8 5 -11
10 -3 6 -1 10 4 10 6 0 11 -4 11 -10z m-240 -20 c0 -5 -5 -10 -11 -10 -5 0 -7
5 -4 10 3 6 8 10 11 10 2 0 4 -4 4 -10z m-309 -91 c6 -10 9 -11 9 -1 0 21 15
13 33 -17 30 -52 -3 -80 -80 -68 -44 7 -45 9 -44 44 1 62 2 63 39 59 19 -2 38
-10 43 -17z m216 -2 c3 -4 17 -7 29 -7 19 0 64 -44 64 -63 0 -12 -69 -27 -127
-27 -59 0 -67 3 -93 31 -27 28 -31 57 -9 60 5 1 13 2 18 3 5 0 12 4 15 7 8 8
94 5 103 -4z m890 -19 c-3 -8 -6 -5 -6 6 -1 11 2 17 5 13 3 -3 4 -12 1 -19z
m33 12 c0 -5 -2 -10 -4 -10 -3 0 -8 5 -11 10 -3 6 -1 10 4 10 6 0 11 -4 11
-10z m-305 -130 c-3 -5 -12 -10 -18 -10 -7 0 -6 4 3 10 19 12 23 12 15 0z m15
-50 c0 -5 -5 -10 -11 -10 -5 0 -7 5 -4 10 3 6 8 10 11 10 2 0 4 -4 4 -10z
m-800 -7 c0 -7 88 -10 100 -4 10 6 176 9 197 4 12 -3 24 -12 27 -20 7 -18 -12
-46 -25 -37 -5 3 -6 -1 -3 -9 3 -8 -2 -20 -11 -27 -10 -8 -15 -9 -15 -1 0 6 5
11 12 11 6 0 9 2 6 5 -12 13 -38 -9 -39 -34 -1 -23 -2 -22 -10 9 -4 19 -9 47
-11 63 -1 15 -6 27 -10 27 -8 0 -2 -66 8 -98 2 -7 0 -10 -6 -7 -5 3 -14 -4
-20 -15 -6 -11 -16 -20 -22 -20 -9 0 -9 3 0 12 7 7 12 17 12 23 0 5 -5 2 -11
-7 -5 -9 -15 -16 -22 -14 -6 1 -9 1 -4 -1 4 -3 7 -12 7 -20 0 -13 -3 -13 -16
-3 -8 8 -14 9 -13 4 5 -27 -2 -84 -10 -80 -5 4 -7 52 -4 109 3 56 3 100 0 97
-4 -3 -7 -38 -8 -78 -1 -40 -6 -72 -11 -72 -6 0 -7 -11 -4 -24 6 -25 -8 -44
-19 -26 -3 5 0 10 7 11 10 0 10 2 1 6 -9 3 -10 10 -3 24 8 13 7 19 0 19 -8 0
-8 6 0 20 8 15 8 18 -3 14 -8 -3 -14 -24 -16 -52 -3 -56 -11 -70 -11 -19 0 26
-4 37 -15 37 -8 0 -15 5 -15 10 0 6 -6 9 -12 8 -9 -2 -13 13 -11 52 l2 55 -11
-55 c-9 -50 -20 -69 -40 -70 -5 0 -8 5 -8 10 0 6 5 9 11 8 6 -2 14 3 16 10 3
8 -2 10 -14 6 -15 -5 -16 -4 -3 5 13 9 13 12 1 20 -8 5 -11 16 -7 26 5 15 4
16 -9 5 -8 -7 -12 -17 -9 -24 3 -6 -4 0 -15 13 -12 13 -21 30 -21 38 0 8 -4
12 -9 9 -5 -4 -7 3 -4 14 5 19 27 25 81 23 6 -1 12 3 12 8 0 5 7 9 15 9 8 0
15 -3 15 -7z m-130 -13 c0 -5 -5 -10 -11 -10 -5 0 -7 5 -4 10 3 6 8 10 11 10
2 0 4 -4 4 -10z m905 0 c3 -5 -1 -10 -9 -10 -9 0 -16 5 -16 10 0 6 4 10 9 10
6 0 13 -4 16 -10z m-407 -26 c7 -14 8 -23 2 -19 -6 4 -10 -9 -10 -31 0 -51 -6
-40 -13 24 -7 56 3 68 21 26z m649 4 c-3 -8 -6 -5 -6 6 -1 11 2 17 5 13 3 -3
4 -12 1 -19z m33 2 c0 -5 -4 -10 -10 -10 -5 0 -10 5 -10 10 0 6 5 10 10 10 6
0 10 -4 10 -10z m1995 -32 c-9 -5 -24 -7 -33 -3 -15 6 -15 8 3 15 28 10 53 0
30 -12z m-2628 -70 c-3 -8 -6 -5 -6 6 -1 11 2 17 5 13 3 -3 4 -12 1 -19z
m-170 -30 c-3 -8 -6 -5 -6 6 -1 11 2 17 5 13 3 -3 4 -12 1 -19z m76 -3 c-3 -9
-8 -14 -10 -11 -3 3 -2 9 2 15 9 16 15 13 8 -4z m-123 -7 c0 -9 4 -8 10 2 8
13 10 12 10 -2 0 -10 -4 -18 -10 -18 -5 0 -10 -9 -10 -21 0 -15 -5 -19 -15
-15 -8 3 -15 0 -15 -6 0 -7 -5 -6 -15 2 -16 13 -21 65 -6 55 5 -3 12 -1 16 5
9 14 35 12 35 -2z m87 -10 c-3 -8 -6 -5 -6 6 -1 11 2 17 5 13 3 -3 4 -12 1
-19z m693 12 c0 -5 -2 -10 -4 -10 -3 0 -8 5 -11 10 -3 6 -1 10 4 10 6 0 11 -4
11 -10z m-956 -16 c9 -8 16 -21 16 -27 0 -7 -7 -4 -14 6 -11 14 -15 15 -19 5
-3 -7 -6 -3 -6 10 -1 26 2 27 23 6z m226 -8 c0 -7 -9 -16 -20 -19 -11 -3 -20
-1 -20 4 0 5 7 9 16 9 8 0 12 5 9 10 -3 6 -1 10 4 10 6 0 11 -6 11 -14z m2930
-7 c0 -5 -4 -9 -10 -9 -5 0 -10 7 -10 16 0 8 5 12 10 9 6 -3 10 -10 10 -16z
m-2267 -9 c-3 -11 -7 -20 -8 -20 -1 0 -5 9 -8 20 -3 12 0 20 8 20 8 0 11 -8 8
-20z m-122 -38 c-7 -2 -18 1 -23 6 -8 8 -4 9 13 5 13 -4 18 -8 10 -11z m49 -5
c0 -2 -10 -12 -21 -23 -22 -19 -22 -19 -10 4 10 18 31 31 31 19z m27 -69 c-3
-8 -6 -5 -6 6 -1 11 2 17 5 13 3 -3 4 -12 1 -19z m-553 -80 c-6 -20 -5 -21 10
-9 9 7 16 10 16 7 0 -4 10 -2 23 4 19 9 20 9 6 -2 -9 -7 -20 -24 -24 -37 -6
-20 -4 -23 9 -18 10 4 15 3 11 -3 -3 -6 -13 -10 -21 -10 -8 0 -14 -6 -14 -14
0 -7 -7 -19 -15 -26 -9 -8 -15 -9 -15 -2 0 6 5 14 10 17 6 3 10 12 9 18 0 9
-2 9 -6 0 -9 -23 -20 -14 -15 12 4 26 22 35 22 13 0 -7 5 -5 11 5 6 10 8 23 5
30 -2 7 -5 4 -5 -6 -1 -14 -5 -16 -20 -7 -11 5 -22 10 -24 10 -8 0 3 -93 13
-105 5 -6 6 -15 2 -19 -11 -11 -9 -50 3 -59 5 -5 0 -6 -12 -2 -25 7 -36 -5
-22 -25 8 -13 10 -13 19 0 16 25 11 1 -7 -33 -9 -18 -16 -36 -14 -42 1 -5 -1
-7 -5 -2 -9 9 -13 47 -5 44 8 -3 10 15 4 31 -4 9 -9 8 -20 -5 -13 -16 -13 -16
-3 5 6 12 7 22 3 22 -4 0 -2 5 5 12 15 15 16 32 1 22 -7 -4 -9 0 -5 13 4 12 1
25 -7 32 -12 9 -13 7 -10 -13 3 -13 1 -26 -4 -29 -5 -3 -8 14 -7 39 2 32 0 43
-9 39 -7 -4 -3 1 7 9 13 11 15 16 6 16 -7 0 -10 3 -7 7 4 3 1 13 -6 21 -9 13
-9 14 1 8 7 -4 12 -1 12 8 0 10 6 13 17 9 11 -5 14 -3 8 6 -5 10 -2 11 12 7
12 -4 25 -1 33 9 19 22 32 18 24 -7z m61 -28 c3 -5 1 -10 -4 -10 -6 0 -11 5
-11 10 0 6 2 10 4 10 3 0 8 -4 11 -10z m1 -58 c-17 -16 -18 -16 -5 5 7 12 15
20 18 17 3 -2 -3 -12 -13 -22z m-49 -67 c0 -8 -4 -12 -9 -9 -5 3 -6 10 -3 15
9 13 12 11 12 -6z m33 -106 c0 -6 -4 -7 -10 -4 -5 3 -10 11 -10 16 0 6 5 7 10
4 6 -3 10 -11 10 -16z m-30 1 c0 -5 -5 -9 -11 -7 -6 1 -14 -4 -16 -11 -3 -8 1
-10 13 -5 16 6 17 5 4 -9 -16 -17 -44 -13 -33 6 19 34 43 48 43 26z m1986 -22
c0 -12 -7 -23 -15 -26 -10 -3 -12 0 -8 12 4 10 7 22 7 27 0 5 4 9 9 9 4 0 8
-10 7 -22z m-2026 -48 c-8 -5 -19 -10 -25 -10 -5 0 -3 5 5 10 8 5 20 10 25 10
6 0 3 -5 -5 -10z m2140 -123 c0 -28 -9 -41 -37 -55 -20 -11 -21 -10 -14 16 19
63 51 88 51 39z m110 -17 c0 -5 -4 -10 -10 -10 -5 0 -10 5 -10 10 0 6 5 10 10
10 6 0 10 -4 10 -10z m-20 -140 c0 -5 -5 -10 -11 -10 -5 0 -7 -4 -4 -10 3 -6
-1 -7 -9 -4 -17 7 -20 16 -9 27 10 11 33 8 33 -3z m-3158 -59 c2 -17 1 -28 -3
-26 -10 7 -18 55 -9 55 4 0 10 -13 12 -29z m2988 -31 c0 -5 -5 -10 -11 -10 -5
0 -7 5 -4 10 3 6 8 10 11 10 2 0 4 -4 4 -10z m100 -14 c0 -3 -4 -8 -10 -11 -5
-3 -10 -1 -10 4 0 6 5 11 10 11 6 0 10 -2 10 -4z m-21 -47 c-5 -11 -14 -17
-20 -13 -7 4 -6 10 0 18 6 7 8 16 4 20 -4 4 0 4 10 1 13 -6 14 -11 6 -26z
m-31 -37 c-10 -2 -18 -7 -18 -10 0 -4 -14 -8 -30 -9 -22 -2 -30 2 -30 14 0 11
8 14 30 11 17 -3 33 -1 36 4 3 5 11 5 17 1 8 -5 7 -9 -5 -11z m-18 -147 c0
-25 -26 -58 -40 -50 -4 3 -11 -11 -14 -30 -4 -19 -11 -35 -17 -35 -6 0 -8 4
-4 10 3 5 -6 16 -19 25 -23 15 -24 19 -12 38 8 12 16 34 20 49 7 31 28 33 36
5 5 -16 6 -15 18 4 8 12 9 18 3 14 -12 -7 -14 5 -5 30 5 13 9 11 20 -11 8 -14
14 -37 14 -49z m-100 -405 c0 -5 -4 -10 -10 -10 -5 0 -10 5 -10 10 0 6 5 10
10 10 6 0 10 -4 10 -10z"/>
<path d="M3531 1834 c0 -11 3 -14 6 -6 3 7 2 16 -1 19 -3 4 -6 -2 -5 -13z"/>
<path d="M3631 1558 c9 -17 5 -22 -14 -19 -5 1 -6 -3 -2 -9 3 -6 11 -8 16 -5
5 3 6 -1 3 -9 -3 -9 -1 -16 4 -16 11 0 13 -37 3 -55 -3 -6 1 -3 10 6 17 19 18
40 0 82 -6 16 -9 32 -7 36 3 4 -1 8 -9 8 -10 0 -11 -5 -4 -19z"/>
<path d="M3378 6283 c7 -3 16 -2 19 1 4 3 -2 6 -13 5 -11 0 -14 -3 -6 -6z"/>
<path d="M4527 5850 c-3 -11 -1 -23 4 -26 5 -3 9 6 9 20 0 31 -6 34 -13 6z"/>
<path d="M2399 5813 l-24 -28 28 24 c25 23 32 31 24 31 -2 0 -14 -12 -28 -27z"/>
<path d="M2314 5783 c-21 -27 -43 -51 -48 -55 -6 -4 -8 -10 -4 -13 5 -5 73 71
92 103 16 26 -3 10 -40 -35z"/>
<path d="M2635 5726 c-16 -7 -46 -20 -65 -29 -33 -16 -34 -16 -5 -10 34 7 115
42 115 48 0 8 -13 5 -45 -9z"/>
<path d="M4546 5706 c3 -9 11 -16 16 -16 13 0 5 23 -10 28 -7 2 -10 -2 -6 -12z"/>
<path d="M4535 5669 c-4 -6 -5 -12 -2 -15 2 -3 7 2 10 11 7 17 1 20 -8 4z"/>
<path d="M4730 5500 c0 -5 5 -10 10 -10 6 0 10 5 10 10 0 6 -4 10 -10 10 -5 0
-10 -4 -10 -10z"/>
<path d="M2284 5460 c-5 -5 -27 -16 -49 -25 -39 -15 -39 -15 -6 -9 30 5 33 4
27 -11 -6 -16 -4 -16 10 -4 12 10 13 14 3 18 -7 2 3 12 22 22 19 10 27 18 19
19 -9 0 -20 -4 -26 -10z"/>
<path d="M2178 5390 c-20 -11 -40 -25 -44 -32 -4 -6 10 -1 32 12 67 40 75 53
12 20z"/>
<path d="M2106 5102 c-5 -15 -13 -21 -22 -18 -8 3 -24 -3 -35 -13 -12 -11 -42
-36 -68 -57 -56 -45 -105 -111 -88 -117 7 -2 27 2 45 9 18 7 36 13 40 13 4 -1
9 0 12 1 33 13 222 12 214 -2 -5 -8 71 -25 150 -33 55 -6 93 -20 107 -37 3 -5
17 -9 32 -10 15 -1 27 -5 27 -8 0 -3 15 -5 34 -6 18 0 58 -12 87 -26 76 -35
106 -44 169 -47 30 -1 57 -7 58 -12 5 -14 106 -11 121 4 10 10 11 8 5 -6 -5
-15 -3 -16 17 -8 28 10 32 11 59 11 27 0 38 44 16 65 -8 9 -30 21 -48 27 -28
10 -30 12 -12 19 15 6 16 8 2 8 -9 1 -23 7 -30 14 -7 6 -30 21 -51 31 -20 11
-37 22 -37 26 0 4 -10 6 -22 5 -13 -1 -31 7 -40 18 -11 12 -18 15 -18 7 0 -9
-4 -9 -12 -2 -7 6 -17 11 -23 12 -5 0 -19 3 -30 6 -33 8 -153 10 -148 2 8 -14
-27 -8 -53 8 -19 13 -28 14 -37 5 -6 -6 -20 -10 -31 -10 -17 1 -18 2 -3 6 9 2
17 11 17 20 0 13 -2 14 -17 2 -11 -10 -14 -10 -9 -1 5 8 -1 12 -21 13 -15 1
-31 1 -35 0 -5 0 -8 4 -8 10 0 6 8 8 19 4 11 -3 22 -2 25 3 3 5 -12 8 -34 8
-21 -1 -36 2 -33 7 2 4 -9 7 -24 7 -16 0 -33 4 -38 8 -15 13 -135 32 -177 28
-28 -3 -38 0 -41 13 -2 12 -5 10 -11 -7z m274 -86 c0 -2 -7 -7 -16 -10 -8 -3
-12 -2 -9 4 6 10 25 14 25 6z m-130 -36 c0 -5 -5 -10 -11 -10 -5 0 -7 5 -4 10
3 6 8 10 11 10 2 0 4 -4 4 -10z m310 -10 c8 -5 11 -10 5 -10 -5 0 -17 5 -25
10 -8 5 -10 10 -5 10 6 0 17 -5 25 -10z"/>
<path d="M2468 4664 c-5 -4 -8 -18 -8 -31 0 -25 -10 -29 -28 -11 -9 9 -12 9
-12 0 0 -18 -18 -14 -23 6 -3 12 -5 10 -6 -7 l-1 -25 -20 22 c-27 29 -32 28
-20 -5 9 -26 9 -27 -5 -9 -12 16 -15 17 -15 4 0 -21 -58 -32 -78 -16 -9 7 -13
8 -9 2 8 -14 -35 -34 -63 -29 -15 3 -20 0 -17 -9 3 -7 0 -13 -6 -13 -21 -1
-42 -8 -48 -16 -3 -5 -32 -10 -63 -12 -31 -2 -64 -9 -72 -15 -7 -7 -14 -9 -14
-4 0 5 -7 -2 -16 -14 -16 -23 -12 -54 9 -81 16 -19 17 -41 4 -41 -28 -1 21
-20 50 -20 17 0 38 -7 47 -15 8 -8 21 -12 30 -9 11 4 13 0 9 -17 -4 -13 -2
-20 4 -16 5 3 16 -3 23 -14 14 -19 37 -28 26 -10 -4 5 7 4 24 -2 16 -6 29 -16
29 -22 -3 -27 4 -37 10 -15 5 20 14 26 43 28 27 2 35 7 32 17 -3 8 -11 13 -17
11 -7 -1 -9 -1 -4 1 4 3 7 9 7 15 0 6 -11 3 -25 -6 -32 -21 -63 -22 -45 -2 6
8 17 13 24 10 7 -3 18 2 25 10 13 15 45 11 35 -5 -3 -5 0 -9 6 -9 6 0 8 -6 4
-12 -4 -7 2 -5 13 5 25 22 53 13 46 -14 -4 -15 0 -19 18 -18 13 0 18 3 12 6
-7 2 -13 10 -13 18 0 7 -19 25 -42 40 -33 21 -39 23 -25 7 10 -11 14 -23 9
-26 -6 -3 -20 15 -32 41 -26 55 -17 87 27 104 16 6 35 17 44 25 9 8 35 17 59
20 l43 6 -7 -37 c-12 -60 0 -92 36 -99 l31 -6 -23 -25 -23 -24 31 -30 c17 -17
27 -31 24 -31 -4 0 -18 -3 -31 -7 -16 -4 -22 -2 -18 4 4 6 -2 13 -13 16 -11 3
-23 1 -26 -5 -3 -5 -12 -7 -20 -4 -7 3 -16 1 -19 -5 -4 -5 -11 -7 -16 -3 -6 3
-17 -2 -24 -12 -13 -18 -14 -18 -9 2 3 12 1 25 -5 28 -6 4 -11 0 -11 -8 0 -9
-7 -16 -16 -16 -14 0 -14 3 -4 15 9 11 9 15 1 15 -6 0 -14 -6 -17 -14 -3 -8
-11 -13 -18 -10 -7 3 -23 0 -37 -6 -22 -10 -22 -10 6 -5 29 6 29 6 10 -10 -19
-15 -19 -16 10 -12 17 2 24 2 18 0 -29 -10 -10 -20 28 -16 31 3 39 1 34 -9 -3
-7 2 -4 12 8 10 11 31 23 46 26 47 9 44 -13 -6 -46 -16 -9 -26 -20 -24 -23 9
-8 77 48 77 64 0 11 5 13 18 8 9 -5 25 -8 34 -9 9 0 15 -3 14 -6 -2 -3 0 -14
5 -25 7 -19 8 -19 8 1 1 12 8 24 15 27 11 5 14 -1 11 -22 -2 -15 1 -34 7 -42
8 -11 9 -10 4 4 -3 9 -1 17 4 17 5 0 7 8 4 18 -5 16 -5 16 6 0 17 -27 31 -21
25 10 l-6 27 15 -25 c13 -22 21 -21 17 3 0 4 4 7 9 7 6 0 10 -7 8 -16 -2 -10
2 -19 9 -21 7 -3 10 4 6 19 -4 18 -3 20 6 8 6 -8 11 -10 11 -5 0 6 7 1 15 -9
8 -11 15 -15 15 -8 0 6 7 9 17 5 11 -4 14 -3 9 5 -10 17 0 15 18 -4 15 -14 16
-14 16 0 0 19 11 21 28 4 9 -9 12 -8 12 6 0 12 5 16 15 12 8 -3 15 -2 15 3 0
4 13 8 30 7 16 -1 30 -5 30 -9 0 -5 5 -5 10 -2 18 11 10 -12 -10 -30 -12 -10
-19 -24 -16 -31 2 -6 -1 -17 -7 -23 -22 -22 1 -10 29 15 23 20 24 23 7 15 -31
-15 -29 -9 7 31 17 18 30 28 30 22 0 -16 43 -15 61 2 11 10 15 25 12 45 -8 55
-64 164 -106 208 -32 34 -36 41 -15 28 30 -19 40 -12 31 21 -6 25 -7 26 -36
11 -20 -9 -20 -9 -4 4 21 17 8 31 -37 43 -23 5 -27 4 -21 -6 6 -10 4 -12 -9
-7 -10 4 -20 7 -22 7 -3 0 -2 5 2 12 5 8 2 9 -10 5 -10 -4 -15 -3 -11 3 3 6
-2 10 -12 10 -14 0 -15 2 -4 9 8 5 9 11 3 15 -6 3 -13 2 -17 -4 -3 -5 -13 -10
-21 -10 -8 0 -13 3 -10 8 2 4 -2 16 -10 27 -14 18 -14 18 -14 -3 0 -14 -6 -22
-16 -22 -14 0 -15 2 -3 17 13 15 12 15 -9 4 -27 -15 -57 -7 -46 11 4 7 -2 4
-14 -6 -25 -22 -26 -19 -12 21 l10 28 -20 -25 c-11 -14 -20 -28 -20 -32 0 -4
-7 -5 -15 -2 -8 4 -12 11 -9 18 3 6 -2 2 -10 -8 -9 -12 -16 -14 -16 -7 0 8 -7
10 -19 6 -16 -5 -20 0 -23 21 -2 14 -6 22 -10 18z m383 -137 c-10 -9 -11 -8
-5 6 3 10 9 15 12 12 3 -3 0 -11 -7 -18z m-265 -72 c10 -8 30 -15 44 -16 l25
-2 -25 -4 c-14 -3 -33 -12 -43 -21 -18 -16 -20 -15 -33 3 -13 17 -14 14 -14
-33 0 -29 -4 -52 -10 -52 -13 0 -13 27 2 89 12 54 22 60 54 36z m-86 -85 c0
-5 -2 -10 -4 -10 -3 0 -8 5 -11 10 -3 6 -1 10 4 10 6 0 11 -4 11 -10z m80 -50
c0 -5 -2 -10 -4 -10 -3 0 -8 5 -11 10 -3 6 -1 10 4 10 6 0 11 -4 11 -10z m380
-52 c0 -13 -32 -6 -37 9 -3 7 3 9 16 6 12 -3 21 -10 21 -15z m40 18 c0 -3 -4
-8 -10 -11 -5 -3 -10 -1 -10 4 0 6 5 11 10 11 6 0 10 -2 10 -4z"/>
<path d="M4420 4572 c0 -4 17 -6 38 -4 64 6 69 10 15 11 -29 0 -53 -3 -53 -7z"/>
<path d="M2940 4451 c0 -23 23 -34 38 -19 8 8 7 15 -6 24 -24 18 -32 17 -32
-5z"/>
<path d="M2985 4399 c-4 -6 -5 -12 -2 -15 2 -3 7 2 10 11 7 17 1 20 -8 4z"/>
<path d="M2460 4201 c0 -6 4 -13 10 -16 6 -3 7 1 4 9 -7 18 -14 21 -14 7z"/>
<path d="M2866 4175 c-3 -8 -1 -15 4 -15 6 0 10 7 10 15 0 8 -2 15 -4 15 -2 0
-6 -7 -10 -15z"/>
<path d="M2824 4158 c-14 -16 -14 -19 -2 -10 14 11 17 10 21 -5 3 -10 4 -6 4
10 -1 15 -2 27 -3 27 0 0 -9 -10 -20 -22z"/>
<path d="M3877 4143 c-4 -3 -7 -11 -7 -17 0 -6 5 -5 12 2 6 6 9 14 7 17 -3 3
-9 2 -12 -2z"/>
<path d="M4498 4120 c-14 -11 -28 -29 -31 -40 -7 -28 8 -25 21 5 7 14 23 30
37 35 27 10 33 20 11 20 -7 0 -25 -9 -38 -20z"/>
<path d="M4553 4113 c-3 -10 -8 -22 -10 -28 -3 -5 3 -1 11 9 16 20 21 36 11
36 -3 0 -8 -8 -12 -17z"/>
<path d="M4979 3948 c-11 -8 -11 -9 2 -5 9 3 21 1 27 -5 6 -6 12 -6 16 1 4 6
6 11 4 12 -25 6 -38 5 -49 -3z"/>
<path d="M5250 3746 c0 -10 -5 -14 -12 -10 -7 4 -8 3 -4 -5 4 -6 12 -9 17 -5
5 3 18 0 27 -7 12 -10 12 -7 -3 11 -11 14 -21 27 -22 29 -2 2 -3 -3 -3 -13z"/>
<path d="M1560 3160 c0 -5 5 -10 10 -10 6 0 10 5 10 10 0 6 -4 10 -10 10 -5 0
-10 -4 -10 -10z"/>
<path d="M3036 3044 c-9 -8 -21 -35 -27 -60 -7 -25 -17 -44 -25 -44 -8 0 -13
-5 -11 -12 4 -24 82 -54 103 -40 6 4 23 26 38 50 20 32 32 42 44 38 9 -4 -4
14 -30 39 -50 48 -68 54 -92 29z m54 -114 c0 -5 -5 -10 -11 -10 -5 0 -7 5 -4
10 3 6 8 10 11 10 2 0 4 -4 4 -10z"/>
<path d="M2428 2942 c-10 -2 -18 -8 -18 -13 0 -5 -6 -9 -14 -9 -7 0 -35 -23
-61 -51 -27 -28 -45 -44 -42 -35 12 31 -44 18 -98 -23 -53 -40 -66 -66 -34
-68 10 -1 17 4 15 10 -1 7 -1 9 1 5 3 -5 15 -8 27 -8 12 0 28 -6 35 -12 11
-11 12 -10 6 2 -7 12 -6 13 6 4 8 -5 21 -10 29 -9 8 0 20 -4 26 -10 7 -5 21
-17 32 -26 22 -18 20 -74 -3 -66 -9 4 -10 -7 -4 -44 13 -79 6 -109 -48 -234
-19 -44 -38 -89 -42 -100 -16 -43 -107 -221 -128 -253 -13 -18 -23 -37 -23
-43 0 -5 -7 -21 -16 -35 -9 -13 -14 -27 -11 -31 3 -3 -2 -13 -12 -22 -10 -9
-24 -43 -32 -76 -10 -46 -15 -54 -19 -36 l-6 24 -17 -26 c-19 -29 -28 -93 -12
-90 6 1 17 4 26 8 13 5 18 -3 23 -34 3 -23 10 -41 15 -41 10 0 26 -66 23 -95
-1 -10 -8 -23 -15 -27 -30 -19 17 -6 64 18 43 22 50 29 45 47 -4 12 -12 50
-18 83 -13 78 7 150 64 227 64 84 161 235 218 337 55 98 132 210 185 268 36
40 75 62 110 62 14 0 25 5 25 11 0 6 -6 9 -14 6 -12 -5 -12 -2 -1 21 7 15 25
56 39 91 26 63 26 64 6 81 -11 9 -17 20 -14 23 3 3 -4 16 -15 28 -12 13 -29
40 -38 61 -9 21 -23 38 -31 38 -7 0 -11 3 -8 8 9 15 -20 37 -49 38 -16 0 -52
4 -80 9 -63 11 -76 12 -97 7z m172 -142 c0 -5 -5 -10 -11 -10 -5 0 -7 5 -4 10
3 6 8 10 11 10 2 0 4 -4 4 -10z"/>
<path d="M1855 2741 c-3 -5 -1 -12 5 -16 5 -3 10 1 10 9 0 18 -6 21 -15 7z"/>
<path d="M2069 2723 c-13 -17 -13 -17 6 -3 11 8 22 16 24 17 2 2 0 3 -6 3 -6
0 -17 -8 -24 -17z"/>
<path d="M2170 2730 c-8 -5 -18 -6 -22 -3 -5 2 -15 -1 -23 -7 -8 -6 -18 -9
-23 -6 -5 3 -18 -4 -28 -17 -18 -20 -18 -21 -1 -7 16 12 31 17 72 21 6 1 24
-2 40 -6 28 -8 29 -7 15 11 -8 10 -15 20 -15 21 0 1 -7 -2 -15 -7z"/>
<path d="M1829 2664 c-28 -19 -62 -34 -75 -34 -14 0 -40 -7 -60 -15 -19 -8
-41 -12 -49 -9 -8 4 -15 1 -15 -5 0 -6 -20 -24 -44 -39 -24 -15 -79 -61 -122
-101 -63 -59 -71 -70 -39 -51 22 13 51 33 65 45 29 26 66 40 95 36 26 -3 82
-29 90 -40 3 -5 19 -12 35 -16 37 -8 39 -11 46 -79 5 -54 -9 -96 -41 -118 -5
-4 -7 -8 -2 -8 8 0 -41 -102 -53 -110 -4 -3 -29 -43 -55 -90 -26 -47 -51 -87
-55 -90 -11 -8 -31 -71 -36 -115 -3 -22 -13 -49 -23 -60 -22 -24 -38 -81 -20
-69 8 5 9 2 2 -11 -10 -18 -6 -55 6 -55 3 0 7 -47 8 -104 0 -58 5 -110 9 -117
4 -8 8 -28 7 -46 0 -19 4 -36 9 -39 6 -4 -3 -15 -19 -25 -32 -21 -26 -25 12
-7 20 9 26 18 22 35 -2 13 0 23 5 23 5 0 4 9 -2 19 -12 23 -13 34 -2 28 4 -3
3 31 -2 75 -12 95 -5 109 52 122 l42 10 -7 131 c-8 182 10 251 107 395 37 56
173 297 228 405 17 33 41 74 52 92 l22 32 -32 20 c-50 30 -102 25 -161 -15z"/>
<path d="M2035 2689 c-4 -6 -5 -12 -2 -15 2 -3 7 2 10 11 7 17 1 20 -8 4z"/>
<path d="M1498 2563 c-10 -2 -18 -8 -18 -13 0 -15 31 -20 52 -9 17 9 18 13 7
20 -8 5 -16 8 -19 8 -3 -1 -13 -3 -22 -6z"/>
<path d="M4546 2457 c3 -10 9 -15 12 -12 3 3 0 11 -7 18 -10 9 -11 8 -5 -6z"/>
<path d="M1020 2445 c0 -7 6 -18 13 -22 37 -24 47 -90 33 -213 -11 -97 -13
-103 -46 -145 -28 -35 -34 -63 -8 -37 8 8 14 7 24 -6 12 -16 13 -16 20 1 6 17
8 17 25 1 11 -9 19 -24 20 -33 0 -10 2 -12 6 -3 2 6 9 10 13 7 5 -3 14 3 19
14 8 14 6 24 -8 42 -10 13 -18 40 -18 59 0 19 -5 53 -11 75 -23 77 -8 144 37
172 28 18 60 -41 70 -126 7 -74 13 -87 30 -76 32 19 127 188 116 205 -4 6 -25
20 -48 31 -36 19 -51 21 -123 15 l-82 -7 -25 31 c-27 32 -57 40 -57 15z"/>
<path d="M3586 2413 c-6 -14 -5 -15 5 -6 7 7 10 15 7 18 -3 3 -9 -2 -12 -12z"/>
<path d="M3633 2405 c-3 -9 -3 -18 -1 -21 3 -3 8 4 11 16 6 23 -1 27 -10 5z"/>
<path d="M7518 2379 c-20 -11 -14 -34 10 -44 13 -5 12 -1 -4 16 -17 20 -17 22
-1 16 11 -4 17 -1 17 8 0 17 0 17 -22 4z"/>
<path d="M4350 2210 c-9 -6 -10 -10 -3 -10 6 0 15 5 18 10 8 12 4 12 -15 0z"/>
<path d="M7233 2213 c-18 -7 -16 -50 3 -57 29 -11 53 -6 63 12 5 10 7 23 3 28
-8 13 -52 24 -69 17z"/>
<path d="M7126 2203 c-9 -9 -7 -41 3 -47 14 -9 41 4 41 20 0 15 -34 37 -44 27z"/>
<path d="M7010 2181 c-17 -7 -25 -31 -10 -31 15 0 12 -26 -5 -40 -9 -7 -13
-20 -10 -28 3 -8 1 -20 -5 -26 -11 -14 50 -86 72 -86 21 0 41 17 44 36 3 22
-19 77 -45 110 -10 13 -17 33 -14 43 6 22 -6 31 -27 22z"/>
<path d="M4310 2169 c0 -5 5 -7 10 -4 6 3 10 8 10 11 0 2 -4 4 -10 4 -5 0 -10
-5 -10 -11z"/>
<path d="M4237 2141 c3 -13 -1 -21 -14 -24 -16 -4 -16 -5 0 -6 9 0 17 -8 17
-16 0 -8 5 -15 11 -15 5 0 7 5 4 10 -4 6 -2 17 4 24 9 11 8 18 -4 30 -21 21
-24 20 -18 -3z"/>
<path d="M4336 2134 c-9 -24 -7 -28 9 -14 17 14 20 30 6 30 -5 0 -12 -7 -15
-16z"/>
<path d="M4280 2119 c-7 -11 -10 -23 -7 -25 2 -2 9 7 15 21 14 30 7 33 -8 4z"/>
<path d="M7146 2118 c-11 -41 -7 -58 13 -58 24 0 33 23 21 55 -12 31 -26 32
-34 3z"/>
<path d="M1166 2108 c5 -7 2 -9 -8 -5 -11 4 -15 1 -14 -9 3 -18 13 -19 31 0
13 12 13 15 -1 20 -10 4 -13 2 -8 -6z"/>
<path d="M7237 2086 c-7 -18 33 -74 58 -80 45 -12 85 50 53 82 -17 17 -104 16
-111 -2z"/>
<path d="M4153 1976 c-6 -8 -9 -17 -5 -20 3 -4 1 -11 -7 -15 -10 -6 -9 -10 4
-14 9 -4 14 -3 11 2 -3 4 3 16 14 26 11 10 17 22 14 26 -7 12 -17 11 -31 -5z"/>
<path d="M955 1969 c-4 -6 -5 -12 -2 -15 2 -3 7 2 10 11 7 17 1 20 -8 4z"/>
<path d="M7301 1942 c-16 -29 10 -49 33 -26 9 9 15 21 13 28 -6 19 -35 18 -46
-2z"/>
<path d="M4166 1915 c-3 -8 -1 -15 4 -15 6 0 10 7 10 15 0 8 -2 15 -4 15 -2 0
-6 -7 -10 -15z"/>
<path d="M941 1865 c-1 -105 28 -166 110 -229 l46 -34 -15 43 c-11 34 -21 47
-45 56 -18 6 -37 11 -43 10 -17 -2 -34 46 -35 102 -1 29 -5 63 -9 77 -6 20 -8
15 -9 -25z"/>
<path d="M7517 1904 c-13 -13 -7 -42 9 -48 21 -8 23 -6 26 24 3 24 -20 39 -35
24z"/>
<path d="M4150 1880 c-18 -12 -2 -12 25 0 13 6 15 9 5 9 -8 0 -22 -4 -30 -9z"/>
<path d="M7642 1874 c-11 -12 -11 -17 2 -29 23 -23 36 -18 36 15 0 32 -17 39
-38 14z"/>
<path d="M7277 1847 c-20 -17 -37 -34 -37 -38 0 -3 28 -5 61 -4 46 1 65 5 74
19 11 14 17 15 34 7 11 -6 34 -11 51 -11 28 0 30 2 20 21 -9 15 -18 19 -35 15
-14 -4 -29 0 -39 9 -17 18 -40 20 -30 3 5 -8 2 -9 -12 -4 -40 17 -50 15 -87
-17z"/>
<path d="M6377 1734 c-9 -9 -9 -48 -1 -57 13 -13 45 14 42 36 -3 22 -28 34
-41 21z"/>
<path d="M7507 1703 c-4 -3 -7 -15 -7 -25 0 -26 24 -17 28 10 3 21 -8 29 -21
15z"/>
<path d="M6401 1657 c-6 -8 -14 -29 -17 -48 -4 -19 -13 -47 -21 -62 -8 -15
-12 -31 -9 -36 3 -4 -1 -17 -9 -27 -19 -25 -19 -45 0 -38 8 4 15 12 15 19 0 6
11 24 25 39 14 15 25 30 25 34 0 4 12 15 26 26 19 13 29 15 37 7 21 -21 47
-13 47 14 0 14 -5 25 -10 25 -6 0 -24 14 -42 30 -34 33 -50 37 -67 17z"/>
<path d="M7150 1644 c0 -17 6 -24 20 -24 13 0 20 7 20 19 0 10 -9 21 -20 24
-16 4 -20 0 -20 -19z"/>
<path d="M7628 1633 c-26 -7 -22 -32 8 -43 36 -14 44 -13 44 8 0 18 -18 43
-29 41 -4 -1 -14 -3 -23 -6z"/>
<path d="M7065 1611 c-3 -5 -1 -12 5 -16 5 -3 10 1 10 9 0 18 -6 21 -15 7z"/>
<path d="M7265 1530 c4 -7 -9 -9 -37 -6 -40 3 -43 2 -43 -21 0 -17 7 -26 25
-30 13 -3 32 -16 42 -27 13 -17 20 -19 35 -10 32 20 20 104 -15 104 -7 0 -10
-5 -7 -10z"/>
<path d="M7107 1513 c-14 -13 -7 -33 11 -33 26 0 34 11 21 27 -13 14 -22 16
-32 6z"/>
<path d="M7564 1509 c-3 -6 -2 -15 2 -19 12 -12 38 5 30 19 -9 14 -23 14 -32
0z"/>
<path d="M1755 1461 c11 -5 40 -10 65 -10 25 -1 56 -8 69 -17 20 -14 22 -24
21 -73 -3 -78 -2 -81 20 -81 11 0 20 -4 20 -9 0 -5 10 -12 23 -16 21 -6 21 -7
-8 -16 -16 -5 -37 -8 -45 -6 -13 3 -16 -6 -15 -47 0 -65 -22 -79 -115 -72 -41
3 -57 1 -45 -4 11 -5 32 -9 48 -9 15 -1 27 -5 27 -10 0 -5 13 -11 30 -14 22
-5 34 -16 46 -44 10 -21 16 -41 16 -45 -1 -5 4 -8 10 -8 18 0 40 15 39 26 0 5
22 9 49 9 39 0 49 3 45 14 -4 11 -2 11 8 3 8 -7 16 -10 19 -7 6 7 37 -62 42
-95 6 -39 45 -17 53 30 1 8 10 20 19 27 15 11 16 26 11 127 -8 134 -14 158
-31 124 -15 -31 -99 -86 -143 -94 -47 -9 -67 5 -71 49 -3 35 -2 36 35 42 64
11 101 25 107 42 4 8 13 13 21 9 8 -3 15 -1 15 5 0 6 5 7 10 4 6 -3 10 -1 10
5 0 6 5 8 10 5 15 -9 20 15 12 52 l-7 32 -31 -29 c-18 -15 -37 -36 -43 -46 -6
-11 -11 -13 -11 -6 0 10 -5 10 -20 2 -11 -6 -17 -16 -14 -25 7 -17 -11 -21
-21 -5 -12 19 -33 11 -28 -10 4 -16 2 -19 -11 -14 -9 3 -16 10 -16 15 0 5 -7
9 -15 9 -12 0 -15 14 -15 63 0 34 -4 67 -8 72 -13 19 -87 44 -147 49 -40 4
-53 3 -40 -3z m379 -146 c-4 -8 -8 -15 -10 -15 -2 0 -4 7 -4 15 0 8 4 15 10
15 5 0 7 -7 4 -15z m-94 -55 c0 -5 -4 -10 -10 -10 -5 0 -10 5 -10 10 0 6 5 10
10 10 6 0 10 -4 10 -10z"/>
<path d="M6777 1441 c-7 -19 -22 -34 -40 -41 -28 -9 -29 -11 -15 -32 22 -33
56 -36 63 -5 4 14 18 35 31 46 30 26 28 55 -4 59 -18 3 -26 -3 -35 -27z"/>
<path d="M1061 1414 c-7 -17 -17 -24 -26 -20 -8 3 -27 1 -41 -5 -24 -8 -26
-13 -21 -46 8 -44 24 -62 60 -65 25 -2 32 -10 27 -33 -1 -6 3 -6 10 1 8 8 6
19 -5 40 -21 42 -19 93 6 120 11 12 16 24 11 28 -5 3 -14 -6 -21 -20z"/>
<path d="M6301 1384 c-13 -15 -29 -23 -37 -20 -16 6 -39 -38 -28 -56 7 -11
-34 -58 -52 -58 -9 0 -10 8 -4 29 10 36 6 41 -35 41 -29 0 -32 -3 -28 -25 4
-19 0 -25 -21 -31 -15 -4 -26 -13 -26 -23 0 -28 10 -31 42 -15 35 18 47 11 57
-37 7 -35 40 -64 48 -41 3 7 18 19 34 27 36 19 59 90 36 108 -10 8 -13 23 -10
45 5 30 8 33 33 27 32 -7 41 2 33 33 -7 28 -14 28 -42 -4z"/>
<path d="M7122 1368 c-6 -6 -12 -34 -12 -60 0 -58 -19 -99 -60 -128 -34 -24
-41 -60 -10 -60 10 0 23 6 27 14 4 7 22 21 39 29 25 13 36 28 49 70 29 92 9
177 -33 135z"/>
<path d="M5578 1323 c6 -2 18 -2 25 0 6 3 1 5 -13 5 -14 0 -19 -2 -12 -5z"/>
<path d="M1214 1298 c41 -27 66 -58 66 -83 0 -14 5 -25 10 -25 17 0 11 49 -9
69 -11 11 -35 27 -53 36 -18 8 -24 10 -14 3z"/>
<path d="M5538 1279 c-23 -24 -23 -29 2 -29 13 0 20 7 20 19 0 11 6 22 13 24
8 4 7 5 -3 5 -8 0 -23 -8 -32 -19z"/>
<path d="M1720 1281 c0 -11 26 -22 34 -14 3 3 3 10 0 14 -7 12 -34 11 -34 0z"/>
<path d="M1900 1258 c0 -6 3 -8 7 -5 3 4 12 2 20 -4 8 -7 13 -8 13 -1 0 5 -7
13 -16 16 -22 8 -24 8 -24 -6z"/>
<path d="M1740 1240 c0 -6 7 -10 15 -10 8 0 15 2 15 4 0 2 -7 6 -15 10 -8 3
-15 1 -15 -4z"/>
<path d="M1085 1220 c3 -5 11 -10 16 -10 6 0 7 5 4 10 -3 6 -11 10 -16 10 -6
0 -7 -4 -4 -10z"/>
<path d="M1541 1194 c-110 -77 -310 -86 -384 -16 -21 20 -30 23 -39 14 -9 -9
-8 -12 4 -12 9 0 27 -10 41 -22 14 -12 47 -30 74 -39 33 -11 47 -21 45 -32 -2
-12 5 -15 31 -14 21 1 33 6 30 13 -3 7 19 16 58 23 74 13 139 43 157 72 17 27
11 32 -17 13z"/>
<path d="M1080 1191 c0 -6 4 -13 10 -16 6 -3 7 1 4 9 -7 18 -14 21 -14 7z"/>
<path d="M6670 1185 c0 -8 5 -15 10 -15 6 0 10 7 10 15 0 8 -4 15 -10 15 -5 0
-10 -7 -10 -15z"/>
<path d="M5617 1148 c-36 -34 -47 -96 -22 -121 21 -22 28 -21 51 4 19 21 18
21 -4 39 -26 22 -28 37 -6 61 29 32 12 47 -19 17z"/>
<path d="M1592 1144 c-39 -31 -133 -74 -175 -81 -48 -7 -44 -11 15 -13 82 -2
82 -2 96 -22 7 -10 17 -16 22 -13 4 3 10 1 12 -4 5 -16 85 65 96 98 9 26 8 31
-12 44 -21 14 -25 13 -54 -9z"/>
<path d="M6252 1137 c-12 -13 -22 -29 -22 -35 0 -7 -14 -25 -31 -40 -23 -21
-33 -40 -38 -73 -10 -64 -4 -79 27 -79 49 1 88 50 77 99 -6 27 13 61 34 61 10
0 29 62 23 78 -6 20 -47 14 -70 -11z"/>
<path d="M5465 1126 c-18 -13 -18 -14 3 -25 24 -13 38 0 25 24 -8 13 -12 13
-28 1z"/>
<path d="M6411 1097 c-14 -35 -14 -44 -1 -52 15 -9 32 43 21 63 -8 15 -11 13
-20 -11z"/>
<path d="M6040 1080 c0 -19 3 -21 12 -12 9 9 9 15 0 24 -9 9 -12 7 -12 -12z"/>
<path d="M5425 1080 c-3 -5 1 -10 9 -10 9 0 16 5 16 10 0 6 -4 10 -9 10 -6 0
-13 -4 -16 -10z"/>
<path d="M7492 988 c-12 -12 -17 -38 -6 -38 16 0 44 23 44 35 0 18 -21 20 -38
3z"/>
<path d="M3040 980 c-13 -9 -13 -10 0 -10 12 -1 11 -3 -3 -14 -10 -8 -14 -17
-9 -20 9 -6 22 13 28 42 3 14 3 14 -16 2z"/>
<path d="M7310 956 c-19 -37 -7 -58 32 -54 40 4 46 25 18 56 -26 28 -34 28
-50 -2z"/>
<path d="M7336 844 c-9 -25 -1 -30 42 -26 29 3 42 9 45 23 4 16 -1 19 -38 19
-30 0 -45 -5 -49 -16z"/>
<path d="M5367 813 c-10 -9 -9 -53 1 -53 16 0 52 32 52 46 0 14 -41 20 -53 7z"/>
<path d="M6232 811 c-16 -10 -5 -41 14 -41 15 0 20 35 6 44 -4 2 -14 1 -20 -3z"/>
<path d="M1350 767 c39 -43 87 -71 140 -81 19 -4 47 -12 62 -18 23 -9 25 -12
13 -24 -10 -11 -11 -22 -4 -46 5 -18 9 -34 9 -36 0 -2 17 -2 38 0 34 3 37 6
40 36 4 37 3 37 45 15 31 -16 32 -16 17 3 -27 34 -54 55 -100 77 -57 27 -68
30 -108 29 -22 0 -30 3 -25 11 4 7 -2 5 -12 -3 -10 -8 -16 -10 -12 -4 8 13
-38 28 -54 18 -6 -3 -27 9 -47 27 l-37 34 35 -38z"/>
<path d="M6149 744 c-9 -11 -10 -20 -2 -32 17 -28 38 -20 41 16 4 36 -16 44
-39 16z"/>
<path d="M2007 706 c-4 -10 -1 -13 8 -9 8 3 12 9 9 14 -7 12 -11 11 -17 -5z"/>
<path d="M2020 680 c0 -6 -4 -9 -8 -6 -5 3 -9 -1 -9 -9 0 -8 8 -12 20 -9 26 5
27 7 11 22 -9 8 -14 9 -14 2z"/>
<path d="M6944 675 c-8 -21 14 -45 42 -45 34 0 41 20 14 42 -27 22 -49 23 -56
3z"/>
<path d="M7650 670 c0 -5 5 -10 11 -10 5 0 7 5 4 10 -3 6 -8 10 -11 10 -2 0
-4 -4 -4 -10z"/>
<path d="M6175 644 c-17 -26 -14 -54 5 -54 11 0 39 61 33 73 -8 13 -21 7 -38
-19z"/>
<path d="M2040 640 c-8 -5 -11 -13 -6 -17 5 -4 11 -2 13 5 4 10 9 8 19 -5 7
-10 14 -13 14 -7 0 19 -24 34 -40 24z"/>
<path d="M5450 635 c-8 -9 -8 -15 -2 -15 12 0 26 19 19 26 -2 2 -10 -2 -17
-11z"/>
<path d="M2080 601 c-12 -30 -72 -67 -90 -56 -6 3 -10 1 -10 -4 0 -6 -9 -11
-20 -11 -11 0 -20 -7 -20 -15 0 -13 -17 -20 -45 -16 -5 1 -1 -6 9 -14 16 -12
17 -15 4 -15 -8 0 -28 10 -44 22 -15 13 -25 17 -20 10 10 -17 -2 -15 -32 6
-42 29 -59 36 -32 12 38 -33 137 -78 198 -91 42 -8 69 -8 113 1 32 7 64 10 71
7 7 -2 31 -1 53 3 l40 7 -70 68 c-38 38 -63 65 -56 60 8 -5 5 6 -8 23 -12 18
-24 32 -25 32 -2 0 -9 -13 -16 -29z"/>
<path d="M2046 612 c-3 -6 -1 -14 5 -17 15 -10 25 3 12 16 -7 7 -13 7 -17 1z"/>
<path d="M7017 581 c-11 -30 -13 -31 -62 -25 -49 6 -50 6 -62 -26 -8 -21 -9
-40 -2 -57 8 -22 14 -25 49 -21 22 2 40 1 41 -2 0 -3 2 -27 5 -55 3 -27 12
-57 19 -66 8 -8 15 -21 15 -28 0 -7 6 -11 13 -8 7 3 11 19 9 43 -1 21 3 49 10
62 16 30 1 56 -36 60 -31 4 -34 18 -6 27 11 4 18 10 15 15 -3 5 6 20 20 35 30
29 30 68 2 73 -13 3 -22 -6 -30 -27z"/>
<path d="M6095 560 c-3 -5 -1 -10 4 -10 6 0 11 5 11 10 0 6 -2 10 -4 10 -3 0
-8 -4 -11 -10z"/>
<path d="M6583 553 c-17 -6 -16 -58 1 -72 8 -7 17 -23 20 -36 8 -30 36 -33 60
-6 16 18 16 20 -4 39 -12 11 -20 28 -19 38 6 36 -20 53 -58 37z"/>
<path d="M6710 541 c0 -5 5 -13 10 -16 6 -3 10 -2 10 4 0 5 -4 13 -10 16 -5 3
-10 2 -10 -4z"/>
<path d="M1687 524 c-12 -13 7 -34 30 -34 17 0 24 5 21 17 -3 16 -40 28 -51
17z"/>
<path d="M5747 503 c-13 -12 -7 -54 8 -59 18 -7 75 32 75 52 0 10 -12 14 -38
14 -21 0 -42 -3 -45 -7z"/>
<path d="M6732 479 c4 -26 1 -32 -21 -41 -14 -6 -28 -11 -32 -10 -3 0 -6 -16
-7 -35 -4 -46 -8 -53 -36 -53 -22 0 -35 -21 -36 -57 0 -24 47 -14 65 13 14 21
22 25 46 20 28 -5 31 -2 49 39 17 39 23 45 49 45 24 0 32 5 37 25 3 14 4 31 1
38 -7 17 -68 47 -97 47 -19 0 -22 -4 -18 -31z"/>
<path d="M7216 475 c-21 -22 -17 -59 8 -63 32 -7 46 31 23 62 -13 17 -14 17
-31 1z"/>
<path d="M5090 463 c0 -10 4 -24 9 -31 7 -11 9 -11 14 2 7 19 -1 46 -14 46 -5
0 -9 -8 -9 -17z"/>
<path d="M7283 414 c-7 -3 -13 -18 -13 -34 0 -21 -7 -30 -30 -40 -36 -15 -39
-43 -7 -65 13 -8 29 -27 36 -41 12 -28 37 -29 55 -2 8 14 6 22 -12 38 -30 28
-28 46 10 81 27 24 31 32 22 47 -11 17 -39 25 -61 16z"/>
<path d="M5025 301 c-7 -12 12 -24 25 -16 11 7 4 25 -10 25 -5 0 -11 -4 -15
-9z"/>
<path d="M6721 277 c-6 -15 -14 -26 -18 -25 -5 1 -18 -1 -30 -6 -18 -6 -23
-15 -23 -40 0 -19 6 -38 13 -44 15 -12 65 -27 55 -17 -4 4 -3 15 1 24 5 9 10
32 12 51 2 19 8 38 12 41 6 4 5 15 -1 25 -10 18 -11 17 -21 -9z"/>
<path d="M2610 275 c0 -11 -3 -53 -6 -94 l-6 -74 26 16 c45 30 66 18 66 -38 0
-31 28 -54 41 -34 17 28 3 94 -21 94 -7 0 -21 25 -32 55 -23 61 -36 82 -48 75
-5 -3 -10 1 -13 7 -3 7 -6 4 -7 -7z"/>
<path d="M7055 228 c4 -18 13 -40 20 -48 7 -8 15 -24 17 -35 4 -23 38 -34 38
-12 0 8 -7 21 -16 28 -9 8 -25 33 -35 56 -22 51 -33 56 -24 11z"/>
<path d="M7506 242 c-9 -27 3 -54 23 -50 22 5 22 62 -1 66 -9 2 -19 -5 -22
-16z"/>
<path d="M7373 214 c-7 -19 5 -43 30 -58 13 -8 24 -7 44 4 38 21 39 36 4 54
-39 21 -70 20 -78 0z"/>
<path d="M1440 181 c0 -5 5 -13 10 -16 6 -3 10 -2 10 4 0 5 -4 13 -10 16 -5 3
-10 2 -10 -4z"/>
<path d="M6920 164 c0 -8 5 -12 10 -9 6 3 10 10 10 16 0 5 -4 9 -10 9 -5 0
-10 -7 -10 -16z"/>
<path d="M7580 170 c0 -5 4 -10 9 -10 6 0 13 5 16 10 3 6 -1 10 -9 10 -9 0
-16 -4 -16 -10z"/>
<path d="M5085 160 c-3 -5 -1 -10 4 -10 6 0 11 5 11 10 0 6 -2 10 -4 10 -3 0
-8 -4 -11 -10z"/>
<path d="M6821 146 c-10 -12 -8 -17 7 -25 15 -8 23 -7 33 5 10 13 10 17 -2 25
-19 12 -25 11 -38 -5z"/>
<path d="M4948 119 c-31 -16 -38 -25 -38 -49 0 -22 5 -29 23 -32 14 -2 21 -9
21 -21 -2 -15 8 -17 72 -17 43 0 74 4 74 10 0 18 -40 51 -70 57 -31 6 -38 21
-19 40 13 13 4 33 -14 33 -7 -1 -29 -10 -49 -21z"/>
<path d="M6722 131 c-8 -5 -12 -22 -10 -42 4 -42 32 -50 71 -19 34 27 34 42 0
58 -31 14 -43 15 -61 3z"/>
<path d="M6916 124 c-8 -21 -8 -24 3 -24 12 0 22 28 12 35 -5 3 -12 -2 -15
-11z"/>
<path d="M1602 118 c-14 -14 -16 -84 -2 -93 9 -5 25 1 58 23 11 7 10 16 -5 45
-19 39 -31 45 -51 25z"/>
<path d="M5118 103 c-21 -24 -29 -55 -19 -72 7 -11 17 -7 49 19 24 19 38 38
35 46 -3 8 -9 14 -13 14 -5 0 -15 2 -22 5 -8 3 -21 -2 -30 -12z"/>
<path d="M7166 102 c-2 -4 -1 -14 4 -22 7 -11 12 -12 21 -3 6 6 8 16 5 22 -8
13 -23 14 -30 3z"/>
<path d="M2436 54 c-14 -37 -7 -54 25 -54 27 0 30 3 23 22 -6 21 -27 48 -37
48 -3 0 -8 -7 -11 -16z"/>
<path d="M6637 55 c-9 -8 -17 -20 -19 -27 -3 -7 -18 -12 -36 -10 -17 1 -33 -2
-37 -8 -4 -6 23 -10 74 -10 79 0 81 0 81 25 0 14 -8 29 -19 35 -25 13 -27 13
-44 -5z"/>
<path d="M4804 43 c-25 -3 -49 -12 -59 -24 -18 -19 -17 -19 63 -19 85 0 110
12 77 37 -11 7 -24 12 -29 11 -6 -1 -30 -3 -52 -5z"/>
<path d="M6808 32 c-16 -9 -28 -20 -28 -24 0 -5 29 -8 65 -8 73 0 90 19 34 39
-40 14 -38 14 -71 -7z"/>
<path d="M7296 32 c-2 -4 -1 -14 3 -21 11 -18 45 -10 49 12 3 12 -3 17 -22 17
-14 0 -27 -4 -30 -8z"/>
</g>
</svg>
